<svg version="1.1" xmlns="http://www.w3.org/2000/svg" xmlns:xlink="http://www.w3.org/1999/xlink" width="150" height="150" enable-background="new 0 0 637.8 850.39" xml:space="preserve"><rect id="backgroundrect" width="100%" height="100%" x="0" y="0" fill="none" stroke="none" style="" class=""/>








<g class="currentLayer" style=""><title>Layer 1</title><g class="" id="svg_67">
	<g id="svg_3">
		<path fill="#FFFFFF" d="M55.113818407058716,21.965911865234375 c1.6664772033691406,0 3.3251514434814453,0.08806134015321732 4.971563816070557,0.26083990931510925 l4.290482044219971,11.44797420501709 c3.592679500579834,0.825993001461029 7.044907093048096,2.188157081604004 10.235179901123047,4.038559436798096 l10.487101554870605,-5.2034220695495605 c2.5125346183776855,2.01537823677063 4.833341121673584,4.298285007476807 6.924519062042236,6.828654766082764 l-4.802129745483398,10.55621337890625 c0.9619864225387573,1.5405160188674927 1.8258793354034424,3.170208215713501 2.5716137886047363,4.886846542358398 c0.7446198463439941,1.7166386842727661 1.3465580940246582,3.4600303173065186 1.8136175870895386,5.215683460235596 l10.990945816040039,3.700805425643921 c0.42247146368026733,3.25492525100708 0.5027298927307129,6.50985050201416 0.25861048698425293,9.721302032470703 l-10.963078498840332,4.108786106109619 c-0.8237636685371399,3.592679500579834 -2.187042236328125,7.044907093048096 -4.037445068359375,10.234064102172852 l5.433050155639648,10.951931953430176 c-1.8526320457458496,2.451226234436035 -3.950498342514038,4.736362457275391 -6.279107570648193,6.81527853012085 l-11.336503982543945,-5.156604290008545 c-1.5405160188674927,0.9631012082099915 -3.170208215713501,1.8258793354034424 -4.8857316970825195,2.5716137886047363 c-1.7177534103393555,0.7457346320152283 -3.4600303173065186,1.3465580940246582 -5.216797828674316,1.8136175870895386 l-4.216911792755127,12.52588939666748 c-2.081145763397217,0.2753309905529022 -4.162291526794434,0.4113244414329529 -6.233404636383057,0.4113244414329529 c-0.789207935333252,0 -1.578415870666504,-0.02006460726261139 -2.3631649017333984,-0.0590791217982769 l-4.716297626495361,-12.588312149047852 c-3.592679500579834,-0.825993001461029 -7.044907093048096,-2.187042236328125 -10.235179901123047,-4.038559436798096 l-12.542609214782715,6.223372936248779 c-2.107898473739624,-1.6798535585403442 -4.078688621520996,-3.5480916500091553 -5.895650863647461,-5.590222358703613 l5.828768730163574,-12.814596176147461 c-0.9631012082099915,-1.5394012928009033 -1.8258793354034424,-3.170208215713501 -2.5716137886047363,-4.886846542358398 c-0.7446198463439941,-1.7177534103393555 -1.3465580940246582,-3.4600303173065186 -1.8136175870895386,-5.215683460235596 l-13.342964172363281,-4.492242813110352 c-0.25192227959632874,-2.7209837436676025 -0.2686428129673004,-5.438623428344727 -0.057964425534009933,-8.126166343688965 l13.112220764160156,-4.912485122680664 c0.8248783349990845,-3.593794107437134 2.188157081604004,-7.044907093048096 4.039674282073975,-10.234064102172852 l-5.975909233093262,-12.040993690490723 c1.839255690574646,-2.1781246662139893 3.886960506439209,-4.200191020965576 6.1263933181762695,-6.040561676025391 l12.029847145080566,5.47206449508667 c1.5405160188674927,-0.9631012082099915 3.171322822570801,-1.8269940614700317 4.886846542358398,-2.5716137886047363 c1.7177534103393555,-0.7446198463439941 3.4600303173065186,-1.3465580940246582 5.216797828674316,-1.8136175870895386 l3.973907232284546,-11.802448272705078 C52.2546112537384,22.03166961669922 53.68700337409973,21.965911865234375 55.113818407058716,21.965911865234375 M55.113818407058716,17.507110595703125 L55.113818407058716,17.507110595703125 c-1.5583511590957642,0 -3.1389963626861572,0.07134082913398743 -4.696232795715332,0.21179307997226715 l-2.895991802215576,0.2619546055793762 l-0.9285454750061035,2.7555394172668457 l-3.2382047176361084,9.614291191101074 c-1.186041235923767,0.39237454533576965 -2.357591390609741,0.8382546901702881 -3.5012741088867188,1.334296464920044 c-1.1414532661437988,0.49492698907852173 -2.2684154510498047,1.0467036962509155 -3.3675098419189453,1.6475273370742798 l-9.927522659301758,-4.515651702880859 l-2.531484603881836,-1.1503708362579346 l-2.1469130516052246,1.7656854391098022 c-2.4345057010650635,2.000887155532837 -4.687315464019775,4.223599910736084 -6.700464725494385,6.607944011688232 l-1.8883025646209717,2.2360892295837402 l1.30197012424469,2.6217753887176514 l4.947040557861328,9.9721097946167 c-1.1247327327728271,2.231630325317383 -2.043245792388916,4.559124946594238 -2.74662184715271,6.956845760345459 l-10.946357727050781,4.102097511291504 l-2.6585605144500732,0.9954274892807007 l-0.2229400873184204,2.8291099071502686 c-0.23185770213603973,2.938350200653076 -0.21067838370800018,5.927976608276367 0.062423225492239,8.887506484985352 l0.26752808690071106,2.88930344581604 l2.7499659061431885,0.9263160228729248 l11.154807090759277,3.756540298461914 c0.39237454533576965,1.1849265098571777 0.8371400237083435,2.3553619384765625 1.3320671319961548,3.49904465675354 c0.49715641140937805,1.1459120512008667 1.0489331483840942,2.272874116897583 1.6486419439315796,3.369739532470703 l-4.8723554611206055,10.713385581970215 l-1.2016470432281494,2.6418399810791016 l1.928431749343872,2.1680924892425537 c1.9763638973236084,2.221597909927368 4.145571231842041,4.278220176696777 6.446312427520752,6.113017559051514 l2.2182538509368896,1.7690296173095703 l2.5426316261291504,-1.2607262134552002 l10.473725318908691,-5.196733474731445 c2.231630325317383,1.1236180067062378 4.559124946594238,2.042131185531616 6.956845760345459,2.7443923950195312 l3.907025098800659,10.425792694091797 l1.0266391038894653,2.741048574447632 l2.924973964691162,0.14714045822620392 c0.8572046160697937,0.043473318219184875 1.7266709804534912,0.06465262174606323 2.5861048698425293,0.06465262174606323 c2.2639565467834473,0 4.5568952560424805,-0.15159927308559418 6.81639289855957,-0.4492242634296417 l2.7555394172668457,-0.36339235305786133 l0.8873015642166138,-2.6340370178222656 l3.4812092781066895,-10.337732315063477 c1.1882706880569458,-0.39237454533576965 2.35982084274292,-0.8382546901702881 3.5023887157440186,-1.334296464920044 c1.1403385400772095,-0.49492698907852173 2.266185998916626,-1.0455890893936157 3.3652806282043457,-1.6464124917984009 l9.2352933883667,4.201305866241455 l2.647413492202759,1.2038764953613281 l2.1692070960998535,-1.9373494386672974 c2.5192229747772217,-2.250580310821533 4.828882217407227,-4.757541656494141 6.8654398918151855,-7.454001426696777 l1.6620184183120728,-2.1993041038513184 l-1.226170539855957,-2.4701762199401855 l-4.4052958488464355,-8.881933212280273 c1.1236180067062378,-2.231630325317383 2.042131185531616,-4.559124946594238 2.74550724029541,-6.956845760345459 l8.799445152282715,-3.297283887863159 l2.666363477706909,-0.998771607875824 l0.21513718366622925,-2.839141845703125 c0.26752808690071106,-3.5313708782196045 0.17277856171131134,-7.107329845428467 -0.28424862027168274,-10.632013320922852 l-0.35670414566993713,-2.7633423805236816 l-2.6407253742218018,-0.8895308971405029 l-8.803903579711914,-2.9639883041381836 c-0.39237454533576965,-1.186041235923767 -0.8382546901702881,-2.357591390609741 -1.3331817388534546,-3.5012741088867188 c-0.4960416853427887,-1.1425678730010986 -1.0467036962509155,-2.2695300579071045 -1.6486419439315796,-3.3675098419189453 l3.8468310832977295,-8.455002784729004 l1.1526002883911133,-2.537058115005493 l-1.775717854499817,-2.1491425037384033 c-2.266185998916626,-2.7432777881622314 -4.813276290893555,-5.255812644958496 -7.572160243988037,-7.46737813949585 l-2.221597909927368,-1.7801766395568848 l-2.5493197441101074,1.265184998512268 l-8.418217658996582,4.176782608032227 c-2.231630325317383,-1.1247327327728271 -4.559124946594238,-2.043245792388916 -6.956845760345459,-2.74550724029541 l-3.4800946712493896,-9.284340858459473 l-0.96644526720047,-2.580531597137451 l-2.741048574447632,-0.2887074053287506 C58.75442051887512,17.604061126708984 56.92520833015442,17.507110595703125 55.113818407058716,17.507110595703125 L55.113818407058716,17.507110595703125 L55.113818407058716,17.507110595703125 z" id="svg_69"/>
	</g>
	<g id="svg_5">
		<path fill="#FFFFFF" d="M110.93912434577942,130.82199096679688 c-0.5707266330718994,0 -1.1403385400772095,-0.014491106383502483 -1.7088357210159302,-0.043473318219184875 l-1.0946358442306519,-0.05462031811475754 l-3.320692777633667,-8.856295585632324 c-2.0242960453033447,-0.5372856259346008 -3.9761364459991455,-1.3075436353683472 -5.823194980621338,-2.2985124588012695 l-8.78718376159668,4.359593391418457 l-0.8326811790466309,-0.6632468104362488 c-1.5193367004394531,-1.2116793394088745 -2.952841281890869,-2.5704991817474365 -4.259270668029785,-4.038559436798096 l-0.72232586145401,-0.8126165866851807 l4.093179702758789,-8.998976707458496 c-0.525023877620697,-0.9051367044448853 -0.998771607875824,-1.8437145948410034 -1.4167842864990234,-2.802356719970703 c-0.41578325629234314,-0.9608717560768127 -0.7780609130859375,-1.9484963417053223 -1.0801446437835693,-2.947268009185791 l-9.367942810058594,-3.15460205078125 l-0.10143774002790451,-1.0834888219833374 c-0.1805814653635025,-1.950725793838501 -0.1939578652381897,-3.9259750843048096 -0.04012921452522278,-5.872241973876953 l0.08360253274440765,-1.061194896697998 l9.184017181396484,-3.4399654865264893 c0.5361708998680115,-2.0242960453033447 1.3075436353683472,-3.9772512912750244 2.2985124588012695,-5.824309825897217 l-4.203535079956055,-8.471723556518555 l0.7089494466781616,-0.8382546901702881 c1.3298375606536865,-1.577301025390625 2.819077491760254,-3.0453617572784424 4.425360679626465,-4.365166664123535 l0.8059284090995789,-0.6621320247650146 l8.417102813720703,3.828995943069458 c0.907366156578064,-0.5261386036872864 1.8470585346221924,-1.001001000404358 2.804586410522461,-1.415669560432434 c0.9619864225387573,-0.4168979823589325 1.9484963417053223,-0.7791755795478821 2.946153163909912,-1.0801446437835693 l2.8001275062561035,-8.312320709228516 l1.0868330001831055,-0.09809363633394241 c1.0288684368133545,-0.09252013266086578 2.072228193283081,-0.13933755457401276 3.103325843811035,-0.13933755457401276 c1.193844199180603,0 2.402179479598999,0.06353792548179626 3.591564655303955,0.18838436901569366 l1.0277538299560547,0.1081259474158287 l3.003002882003784,8.012467384338379 c2.0254106521606445,0.5372856259346008 3.978365898132324,1.3075436353683472 5.8254241943359375,2.2985124588012695 l7.375972747802734,-3.6595616340637207 l0.8315665125846863,0.6677055358886719 c1.8225351572036743,1.4602575302124023 3.505732774734497,3.118932008743286 5.0027756690979,4.932549476623535 l0.6665908694267273,0.8059284090995789 l-3.369739532470703,7.408298969268799 c0.527253270149231,0.907366156578064 1.001001000404358,1.8470585346221924 1.4167842864990234,2.8012421131134033 c0.4135538637638092,0.9552982449531555 0.7769462466239929,1.9440375566482544 1.0801446437835693,2.948382616043091 l7.711497783660889,2.596137285232544 l0.1348787546157837,1.0366714000701904 c0.30096912384033203,2.3274946212768555 0.36339235305786133,4.690659523010254 0.1872696727514267,7.0237274169921875 l-0.08025842905044556,1.0645389556884766 l-7.711497783660889,2.89041805267334 c-0.5372856259346008,2.0242960453033447 -1.3086583614349365,3.9772512912750244 -2.2973976135253906,5.824309825897217 l3.8033578395843506,7.665794849395752 l-0.6253469586372375,0.8248783349990845 c-1.3476728200912476,1.7835206985473633 -2.875926971435547,3.4399654865264893 -4.536830902099609,4.92363166809082 l-0.8126165866851807,0.7267847061157227 l-7.985713958740234,-3.6316938400268555 c-0.9062514901161194,0.525023877620697 -1.8437145948410034,0.998771607875824 -2.8001275062561035,1.415669560432434 c-0.9597570896148682,0.41578325629234314 -1.9484963417053223,0.7780609130859375 -2.9494972229003906,1.0801446437835693 l-2.9506120681762695,8.763774871826172 l-1.033327341079712,0.13710816204547882 C113.94995045661926,130.72166442871094 112.4350655078888,130.82199096679688 110.93912434577942,130.82199096679688 zM110.94470143318176,84.40471649169922 c-6.914486885070801,0 -12.540379524230957,5.6258931159973145 -12.540379524230957,12.540379524230957 s5.6258931159973145,12.540379524230957 12.540379524230957,12.540379524230957 s12.541495323181152,-5.6258931159973145 12.541495323181152,-12.540379524230957 S117.85919117927551,84.40471649169922 110.94470143318176,84.40471649169922 z" id="svg_71"/>
		<path fill="#FFFFFF" d="M110.93579030036926,63.346920013427734 c1.1447973251342773,0 2.2851357460021973,0.060193825513124466 3.4154419898986816,0.17946676909923553 l2.9494972229003906,7.869784832000732 c2.4712908267974854,0.5673825144767761 4.844488143920898,1.5037308931350708 7.03710412979126,2.775604009628296 l7.208767890930176,-3.577073812484741 c1.72890043258667,1.3844579458236694 3.321807384490967,2.953956365585327 4.75977087020874,4.6928887367248535 l-3.3006279468536377,7.256700038909912 c0.6621320247650146,1.0589654445648193 1.2562673091888428,2.179239511489868 1.767914891242981,3.3597071170806885 c0.5138769149780273,1.1804677248001099 0.9252013564109802,2.3776559829711914 1.247349739074707,3.585991382598877 l7.554324626922607,2.5437464714050293 c0.2898221015930176,2.23720383644104 0.34667181968688965,4.475522041320801 0.17835207283496857,6.682629108428955 l-7.535375118255615,2.824650764465332 c-0.5684972405433655,2.4690613746643066 -1.5048456192016602,4.842258453369141 -2.775604009628296,7.034874439239502 l3.734246253967285,7.527571678161621 c-1.2741025686264038,1.6854270696640015 -2.7154104709625244,3.256040096282959 -4.315005302429199,4.685085773468018 l-7.793985366821289,-3.5447473526000977 c-1.05785071849823,0.6621320247650146 -2.1770098209381104,1.255152702331543 -3.357477903366089,1.767914891242981 c-1.1826971769332886,0.5116474628448486 -2.37988543510437,0.9263160228729248 -3.585991382598877,1.2462351322174072 l-2.9004504680633545,8.611061096191406 c-1.430160641670227,0.18838436901569366 -2.860321283340454,0.2820191979408264 -4.284908771514893,0.2820191979408264 c-0.5417444109916687,0 -1.0846035480499268,-0.013376405462622643 -1.6241185665130615,-0.04124391824007034 l-3.2426633834838867,-8.653419494628906 c-2.4701762199401855,-0.5673825144767761 -4.8433732986450195,-1.5048456192016602 -7.035988807678223,-2.775604009628296 l-8.622207641601562,4.277105331420898 c-1.447995901107788,-1.1548296213150024 -2.802356719970703,-2.438964605331421 -4.051936149597168,-3.842372417449951 l4.0062336921691895,-8.809477806091309 c-0.6621320247650146,-1.05785071849823 -1.255152702331543,-2.179239511489868 -1.767914891242981,-3.3597071170806885 c-0.5116474628448486,-1.1804677248001099 -0.9252013564109802,-2.3776559829711914 -1.2451204061508179,-3.584876775741577 l-9.172869682312012,-3.088834762573242 c-0.1738932728767395,-1.87158203125 -0.18504026532173157,-3.7387053966522217 -0.03901451453566551,-5.585763931274414 l9.013467788696289,-3.37642765045166 c0.5662678480148315,-2.4712908267974854 1.5037308931350708,-4.8433732986450195 2.775604009628296,-7.035988807678223 l-4.10767126083374,-8.276651382446289 c1.2640702724456787,-1.4970427751541138 2.6708221435546875,-2.8870739936828613 4.209108829498291,-4.15225887298584 l8.269962310791016,3.7621140480041504 c1.0589654445648193,-0.6621320247650146 2.180354118347168,-1.2562673091888428 3.3608219623565674,-1.767914891242981 c1.1815824508666992,-0.5116474628448486 2.3787708282470703,-0.9263160228729248 3.584876775741577,-1.2462351322174072 l2.732130765914917,-8.11279010772705 C108.96945118904114,63.39039611816406 109.95484852790833,63.346920013427734 110.93579030036926,63.346920013427734 M110.94470143318176,111.15752410888672 c7.849720478057861,0 14.213545799255371,-6.362710475921631 14.213545799255371,-14.212430953979492 s-6.363824844360352,-14.212430953979492 -14.213545799255371,-14.212430953979492 s-14.212430953979492,6.362710475921631 -14.212430953979492,14.212430953979492 S103.09499287605286,111.15752410888672 110.94470143318176,111.15752410888672 M110.93579030036926,60.0028190612793 c-1.0812594890594482,0 -2.1758952140808105,0.04904681816697121 -3.253810405731201,0.14714045822620392 l-2.172551155090332,0.19618727266788483 l-0.6966877579689026,2.066654682159424 l-2.180354118347168,6.477524280548096 c-0.7758314609527588,0.2597251832485199 -1.5438600778579712,0.5551208257675171 -2.2962827682495117,0.8817280530929565 c-0.7524228096008301,0.3254925310611725 -1.4936985969543457,0.6866554617881775 -2.21713924407959,1.0779153108596802 l-6.699349880218506,-3.046476364135742 l-1.8972201347351074,-0.8627781271934509 l-1.6096274852752686,1.3242640495300293 c-1.6831976175308228,1.3833433389663696 -3.2448930740356445,2.923859119415283 -4.641612529754639,4.5780744552612305 l-1.4167842864990234,1.6776241064071655 l0.9764775633811951,1.9663316011428833 l3.3396425247192383,6.729446887969971 c-0.7323582172393799,1.469175100326538 -1.3354110717773438,2.997429370880127 -1.8035852909088135,4.571386337280273 l-7.396037578582764,2.7700304985046387 l-1.9919695854187012,0.7457346320152283 l-0.1672050654888153,2.121274948120117 c-0.16163155436515808,2.0410165786743164 -0.14714045822620392,4.113244533538818 0.04235861450433731,6.158720016479492 l0.20176076889038086,2.165862798690796 l2.0621957778930664,0.6944584250450134 l7.535375118255615,2.537058115005493 c0.26083990931510925,0.7758314609527588 0.5551208257675171,1.5438600778579712 0.880613386631012,2.295168161392212 c0.3277219235897064,0.7535374760627747 0.6877701282501221,1.4936985969543457 1.0790300369262695,2.21713924407959 l-3.291710376739502,7.237750053405762 l-0.9017926454544067,1.9808225631713867 l1.4468811750411987,1.6263478994369507 c1.3699668645858765,1.538286566734314 2.8714683055877686,2.962873697280884 4.466604709625244,4.233632564544678 l1.6631330251693726,1.3264936208724976 l1.9072524309158325,-0.9463806748390198 l7.076118469238281,-3.5101916790008545 c1.4680604934692383,0.7312434911727905 2.996314764022827,1.334296464920044 4.5702714920043945,1.8035852909088135 l2.637381076812744,7.035988807678223 l0.769143283367157,2.0555076599121094 l2.193730592727661,0.11035533994436264 c0.5930206179618835,0.030096912756562233 1.1960735321044922,0.04570271819829941 1.7913235425949097,0.04570271819829941 c1.5672688484191895,0 3.156831741333008,-0.10478183627128601 4.7218708992004395,-0.3110014498233795 l2.066654682159424,-0.2731015980243683 l0.6665908694267273,-1.975249171257019 l2.3464443683624268,-6.973566055297852 c0.7791755795478821,-0.26083990931510925 1.5483189821243286,-0.5562355518341064 2.2996270656585693,-0.8817280530929565 c0.7513081431388855,-0.32660722732543945 1.4914692640304565,-0.6866554617881775 2.2137949466705322,-1.0779153108596802 l6.222257614135742,2.8302245140075684 l1.983052134513855,0.9040220379829407 l1.6285773515701294,-1.452454686164856 c1.7422767877578735,-1.556121826171875 3.341871738433838,-3.2928249835968018 4.757541656494141,-5.162177562713623 l1.247349739074707,-1.649756669998169 l-0.9207425117492676,-1.853746771812439 l-2.967332601547241,-5.98148250579834 c0.7312434911727905,-1.469175100326538 1.334296464920044,-2.997429370880127 1.8047000169754028,-4.5702714920043945 l5.917944431304932,-2.2182538509368896 l1.9986578226089478,-0.7490786910057068 l0.16274626553058624,-2.129077911376953 c0.18504026532173157,-2.445652723312378 0.11927294731140137,-4.92363166809082 -0.19618727266788483,-7.36482572555542 l-0.2697575092315674,-2.072228193283081 l-1.9785932302474976,-0.6677055358886719 l-5.920173645019531,-1.9930843114852905 c-0.2630693018436432,-0.7802903056144714 -0.557350218296051,-1.5494335889816284 -0.8839574456214905,-2.2996270656585693 c-0.32660722732543945,-0.7490786910057068 -0.6855407953262329,-1.4892396926879883 -1.0779153108596802,-2.2126803398132324 l2.588334560394287,-5.686086654663086 l0.8638927936553955,-1.9039082527160645 l-1.3320671319961548,-1.610742211341858 c-1.5694981813430786,-1.9016789197921753 -3.33518385887146,-3.64172625541687 -5.244665622711182,-5.1733245849609375 l-1.6653623580932617,-1.3354110717773438 l-1.913940668106079,0.9486100673675537 l-5.660449028015137,2.810159683227539 c-1.469175100326538,-0.7312434911727905 -2.997429370880127,-1.334296464920044 -4.5725016593933105,-1.8035852909088135 l-2.3431003093719482,-6.251239776611328 l-0.7256699800491333,-1.9362345933914185 l-2.056622266769409,-0.2162518948316574 C113.45614552497864,60.06857681274414 112.1887047290802,60.0028190612793 110.93579030036926,60.0028190612793 L110.93579030036926,60.0028190612793 zM110.94470143318176,107.81342315673828 c-5.992629528045654,0 -10.868329048156738,-4.875699996948242 -10.868329048156738,-10.868329048156738 s4.875699996948242,-10.868329048156738 10.868329048156738,-10.868329048156738 s10.869444847106934,4.875699996948242 10.869444847106934,10.868329048156738 S116.9373390674591,107.81342315673828 110.94470143318176,107.81342315673828 L110.94470143318176,107.81342315673828 z" id="svg_72"/>
	</g>
	<g id="svg_7">
		<path fill="#FFFFFF" d="M57.64530110359192,86.81917572021484 v5.261385917663574 h-2.5225670337677 v-5.067428112030029 c-3.442194938659668,0 -6.240093231201172,-0.6944584250450134 -8.388120651245117,-2.0844898223876953 v-4.219141483306885 c0.937463104724884,0.8248783349990845 2.2182538509368896,1.5148779153823853 3.842372417449951,2.072228193283081 c1.6252331733703613,0.557350218296051 3.140110969543457,0.8360253572463989 4.545748233795166,0.8360253572463989 v-12.414419174194336 c-3.555894374847412,-1.713294506072998 -5.858865737915039,-3.2939395904541016 -6.910027980804443,-4.739706039428711 c-1.0511624813079834,-1.445766568183899 -1.5761864185333252,-3.155717134475708 -1.5761864185333252,-5.12873649597168 c0,-2.344214916229248 0.8003548979759216,-4.367396354675293 2.3999502658843994,-6.072887897491455 c1.6007097959518433,-1.7054916620254517 3.628350019454956,-2.7276721000671387 6.085149765014648,-3.0676558017730713 v-4.365166664123535 h2.5225670337677 v4.268187999725342 c3.1679787635803223,0.09697893261909485 5.358365058898926,0.5495473146438599 6.5711588859558105,1.3577052354812622 v4.122162342071533 c-1.6486419439315796,-1.2941672801971436 -3.8390283584594727,-1.9886256456375122 -6.5711588859558105,-2.085604667663574 v12.801219940185547 c3.361936569213867,1.6007097959518433 5.661563396453857,3.149028778076172 6.897766590118408,4.643841743469238 c1.2362027168273926,1.4948132038116455 1.8548616170883179,3.196960926055908 1.8548616170883179,5.104213237762451 c0,2.2962827682495117 -0.7724874019622803,4.223599910736084 -2.316347599029541,5.783066272735596 C62.53885197639465,85.38453674316406 60.39194416999817,86.38221740722656 57.64530110359192,86.81917572021484 zM55.12273335456848,66.9362564086914 v-11.298603057861328 c-1.3577052354812622,0.2753309905529022 -2.4322762489318848,0.8772692680358887 -3.2248282432556152,1.8069294691085815 c-0.7925520539283752,0.9296601414680481 -1.1882706880569458,2.056622266769409 -1.1882706880569458,3.3820009231567383 c0,1.391146183013916 0.32326310873031616,2.530369997024536 0.9697893857955933,3.41878604888916 C52.32594609260559,65.13490295410156 53.47408604621887,66.03111267089844 55.12273335456848,66.9362564086914 zM57.64530110359192,72.46516418457031 v10.959734916687012 c3.118932008743286,-0.6788526177406311 4.6795125007629395,-2.3609354496002197 4.6795125007629395,-5.042904853820801 C62.32372212409973,76.14927673339844 60.764235734939575,74.17848205566406 57.64530110359192,72.46516418457031 z" id="svg_74"/>
	</g>
</g></g></svg>