<svg version="1.1" xmlns="http://www.w3.org/2000/svg" xmlns:xlink="http://www.w3.org/1999/xlink" width="150" height="150" enable-background="new 0 0 637.8 850.39" xml:space="preserve" style=""><rect id="backgroundrect" width="100%" height="100%" x="0" y="0" fill="none" stroke="none" style="" class=""/>








<g class="currentLayer" style=""><title>Layer 1</title>
	
	
	
	
	
	
	
	
	
	
<g class="" id="svg_40">
	<g id="svg_3">
		<path fill="#FFFFFF" d="M93.22637224197388,39.66701126098633 c1.0235792398452759,0 1.8530164957046509,0.7765681743621826 1.8530164957046509,1.7334110736846924 v76.80831146240234 c0,0.9568428993225098 -0.8294371962547302,1.7334110736846924 -1.8530164957046509,1.7334110736846924 h-36.451900482177734 c-1.0235792398452759,0 -1.8530164957046509,-0.7765681743621826 -1.8530164957046509,-1.7334110736846924 v-76.80831146240234 c0,-0.9568428993225098 0.8294371962547302,-1.7334110736846924 1.8530164957046509,-1.7334110736846924 H93.22637224197388 M93.22637224197388,37.06689453125 h-36.451900482177734 c-2.455376625061035,0 -4.4531331062316895,1.9440205097198486 -4.4531331062316895,4.333527565002441 v76.80831146240234 c0,2.3895070552825928 1.9977563619613647,4.333527565002441 4.4531331062316895,4.333527565002441 h36.451900482177734 c2.455376625061035,0 4.4531331062316895,-1.9440205097198486 4.4531331062316895,-4.333527565002441 v-76.80831146240234 C97.67950487136841,39.01091766357422 95.68175554275513,37.06689453125 93.22637224197388,37.06689453125 L93.22637224197388,37.06689453125 z" id="svg_42"/>
	</g>
	<g id="svg_5">
		<path fill="#FFFFFF" d="M44.97948122024536,81.8071060180664 c1.0235792398452759,0 1.8530164957046509,0.7765681743621826 1.8530164957046509,1.7334110736846924 v34.66822052001953 c0,0.9568428993225098 -0.8294371962547302,1.7334110736846924 -1.8530164957046509,1.7334110736846924 h-36.451900482177734 c-1.0235792398452759,0 -1.8530164957046509,-0.7765681743621826 -1.8530164957046509,-1.7334110736846924 v-34.66822052001953 c0,-0.9568428993225098 0.8294371962547302,-1.7334110736846924 1.8530164957046509,-1.7334110736846924 H44.97948122024536 M44.97948122024536,79.20699310302734 h-36.451900482177734 c-2.455376625061035,0 -4.4531331062316895,1.9440205097198486 -4.4531331062316895,4.333527565002441 v34.66822052001953 c0,2.3895070552825928 1.9977563619613647,4.333527565002441 4.4531331062316895,4.333527565002441 h36.451900482177734 c2.455376625061035,0 4.4531331062316895,-1.9440205097198486 4.4531331062316895,-4.333527565002441 v-34.66822052001953 C49.43261384963989,81.15100860595703 47.43483781814575,79.20699310302734 44.97948122024536,79.20699310302734 L44.97948122024536,79.20699310302734 z" id="svg_44"/>
	</g>
	<g id="svg_7">
		<path fill="#FFFFFF" d="M141.47241258621216,97.40780639648438 c1.0235792398452759,0 1.8530164957046509,0.7765681743621826 1.8530164957046509,1.7334110736846924 v19.067522048950195 c0,0.9568428993225098 -0.8294371962547302,1.7334110736846924 -1.8530164957046509,1.7334110736846924 h-36.451900482177734 c-1.0235792398452759,0 -1.8530164957046509,-0.7765681743621826 -1.8530164957046509,-1.7334110736846924 v-19.067522048950195 c0,-0.9568428993225098 0.8294371962547302,-1.7334110736846924 1.8530164957046509,-1.7334110736846924 H141.47241258621216 M141.47241258621216,94.80768585205078 h-36.451900482177734 c-2.455376625061035,0 -4.4531331062316895,1.9440205097198486 -4.4531331062316895,4.333527565002441 v19.067522048950195 c0,2.3895070552825928 1.9977563619613647,4.333527565002441 4.4531331062316895,4.333527565002441 h36.451900482177734 c2.455376625061035,0 4.4531331062316895,-1.9440205097198486 4.4531331062316895,-4.333527565002441 v-19.067522048950195 C145.92555284500122,96.751708984375 143.9277958869934,94.80768585205078 141.47241258621216,94.80768585205078 L141.47241258621216,94.80768585205078 z" id="svg_46"/>
	</g>
	<g id="svg_9">
		<path fill="#FFFFFF" d="M77.6880955696106,13.590444564819336 v18.73904037475586 h-4.026713848114014 v-14.187970161437988 c-0.2218766212463379,0.19587545096874237 -0.4844883978366852,0.38135042786598206 -0.7861019372940063,0.5564249753952026 c-0.3033469319343567,0.1750745177268982 -0.6248946785926819,0.3319482207298279 -0.9646432995796204,0.472354531288147 c-0.3414819836616516,0.1404062956571579 -0.695097804069519,0.2600116729736328 -1.0617142915725708,0.3579493761062622 c-0.36661645770072937,0.09793772548437119 -0.728899359703064,0.16814087331295013 -1.085982084274292,0.21060945093631744 v-3.400085926055908 c1.047847032546997,-0.3068137764930725 2.0367579460144043,-0.6985646486282349 2.9649996757507324,-1.1761194467544556 c0.9282416105270386,-0.47668805718421936 1.7680792808532715,-1.0010448694229126 2.517779588699341,-1.5722038745880127 H77.6880955696106 z" id="svg_48"/>
	</g>
	<path fill="#FFFFFF" d="M143.32543992996216,134.6761474609375 c0,0.9568428993225098 -0.7765681743621826,1.7334110736846924 -1.7334110736846924,1.7334110736846924 H5.8087193965911865 c-0.9568428993225098,0 -1.7334110736846924,-0.7765681743621826 -1.7334110736846924,-1.7334110736846924 v-7.222257614135742 c0,-0.9568428993225098 0.7765681743621826,-1.7334110736846924 1.7334110736846924,-1.7334110736846924 h135.78329467773438 c0.9568428993225098,0 1.7334110736846924,0.7765681743621826 1.7334110736846924,1.7334110736846924 V134.6761474609375 z" id="svg_11"/>
	<g id="svg_13">
		<path fill="#FFFFFF" d="M27.179062366485596,68.56037902832031 h7.7717485427856445 v3.348950147628784 h-12.194546699523926 v-1.380661964416504 c0,-0.9377754330635071 0.1586071103811264,-1.778479814529419 0.47322121262550354,-2.5247132778167725 c0.3154807984828949,-0.7453667521476746 0.7115652561187744,-1.4144634008407593 1.1891199350357056,-2.0064234733581543 c0.47668805718421936,-0.5928266048431396 0.9984447360038757,-1.1163166761398315 1.5661369562149048,-1.5722038745880127 c0.5659587383270264,-0.4558871388435364 1.10504949092865,-0.8667055368423462 1.6164058446884155,-1.2333219051361084 c0.5364907383918762,-0.38308385014533997 1.0079785585403442,-0.7497003078460693 1.4127299785614014,-1.098982572555542 c0.4047514796257019,-0.34928232431411743 0.7453667521476746,-0.6968312859535217 1.0227124691009521,-1.0417801141738892 c0.2764790654182434,-0.34494879841804504 0.4836217164993286,-0.6942311525344849 0.6196944117546082,-1.047847032546997 c0.1360727697610855,-0.3536158502101898 0.20454250276088715,-0.7306327819824219 0.20454250276088715,-1.131050705909729 c0,-0.7835018038749695 -0.2218766212463379,-1.3754616975784302 -0.6647631525993347,-1.7767462730407715 c-0.4437532424926758,-0.4004179835319519 -1.120650291442871,-0.6006269454956055 -2.0324244499206543,-0.6006269454956055 c-1.5765373706817627,0 -3.0854716300964355,0.6266281008720398 -4.525936603546143,1.8790175914764404 v-3.553492546081543 c1.5938714742660522,-1.0313795804977417 3.391418933868408,-1.5470693111419678 5.394375324249268,-1.5470693111419678 c0.9291083812713623,0 1.7620123624801636,0.12133877724409103 2.4995787143707275,0.3640163242816925 s1.3607277870178223,0.5902264714241028 1.8720840215682983,1.0417801141738892 c0.5113562345504761,0.451553612947464 0.9013737440109253,0.9993115067481995 1.1700525283813477,1.6432737112045288 c0.2686787247657776,0.6430954933166504 0.4030180871486664,1.3607277870178223 0.4030180871486664,2.1537630558013916 c0,0.843304455280304 -0.1300058364868164,1.593004822731018 -0.39001747965812683,2.249967575073242 s-0.6049605011940002,1.2523895502090454 -1.0348464250564575,1.7888801097869873 c-0.4307526648044586,0.5373574495315552 -0.9265082478523254,1.0296461582183838 -1.4890002012252808,1.4768662452697754 c-0.5624918937683105,0.4472200274467468 -1.1466513872146606,0.879706084728241 -1.7516118288040161,1.2974581718444824 c-0.40995171666145325,0.28947964310646057 -0.8034360408782959,0.5780925750732422 -1.1821863651275635,0.8632386922836304 c-0.37961700558662415,0.28601282835006714 -0.7141653895378113,0.5668253898620605 -1.0036450624465942,0.8441711664199829 s-0.5200233459472656,0.5477579236030579 -0.6898975968360901,0.8121030926704407 C27.263145923614502,68.06981658935547 27.179062366485596,68.3211669921875 27.179062366485596,68.56037902832031 z" id="svg_51"/>
	</g>
	<g id="svg_15">
		<path fill="#FFFFFF" d="M118.23947954177856,88.93055725097656 v-3.5153579711914062 c1.22725510597229,0.8953068256378174 2.6581857204437256,1.342526912689209 4.294526100158691,1.342526912689209 c1.0305129289627075,0 1.8339488506317139,-0.2218766212463379 2.4094414710998535,-0.6647631525993347 c0.5746257305145264,-0.44288650155067444 0.8623720407485962,-1.060847520828247 0.8623720407485962,-1.8530164957046509 c0,-0.8181700110435486 -0.35534927248954773,-1.4482649564743042 -1.066914439201355,-1.8920183181762695 s-1.6892091035842896,-0.6647631525993347 -2.933798313140869,-0.6647631525993347 h-1.6996095180511475 v-3.0932719707489014 h1.571337103843689 c2.386040449142456,0 3.579493999481201,-0.7930355668067932 3.579493999481201,-2.377373218536377 c0,-1.4916001558303833 -0.9169744253158569,-2.236967086791992 -2.7483232021331787,-2.236967086791992 c-1.22725510597229,0 -2.420708656311035,0.39608442783355713 -3.579493999481201,1.1891199350357056 v-3.2978146076202393 c1.2870577573776245,-0.6474289894104004 2.787325143814087,-0.9715769290924072 4.499068260192871,-0.9715769290924072 c1.87468421459198,0 3.3342161178588867,0.42208558320999146 4.378596305847168,1.265390157699585 c1.0435134172439575,0.8441711664199829 1.5661369562149048,1.938820242881775 1.5661369562149048,3.28481388092041 c0,2.394707441329956 -1.2142544984817505,3.894974708557129 -3.642763376235962,4.499068260192871 v0.06413620710372925 c1.2948579788208008,0.16207394003868103 2.317570686340332,0.6326950788497925 3.0672709941864014,1.4127299785614014 c0.7497003078460693,0.7791682481765747 1.124983787536621,1.736011266708374 1.124983787536621,2.869662046432495 c0,1.7134768962860107 -0.6266281008720398,3.0681376457214355 -1.8790175914764404,4.064848899841309 s-2.9823336601257324,1.4959337711334229 -5.188966274261475,1.4959337711334229 C120.96269273757935,89.85100555419922 119.423424243927,89.544189453125 118.23947954177856,88.93055725097656 z" id="svg_53"/>
	</g>
</g></g></svg>