<svg version="1.1" xmlns="http://www.w3.org/2000/svg"  width="150" height="150" enable-background="new 0 0 637.8 850.39" xml:space="preserve" style=""><rect id="backgroundrect" width="100%" height="100%" x="0" y="0" fill="none" stroke="none" style="" class=""/>








<g class="currentLayer" style=""><title>Layer 1</title>
	
	
	
	
	
	
	
	
	
	
<g class="" id="svg_54"><path fill="none" stroke="#75AC2C" stroke-width="3" stroke-miterlimit="10" d="M146.24453735351562,143.37350463867188 c0,1.656999945640564 -1.343000054359436,3 -3,3 H46.57854461669922 c-1.656000018119812,0 -3,-1.343000054359436 -3,-3 V6.626495361328125 c0,-1.656999945640564 1.343999981880188,-3 3,-3 h96.66600036621094 c1.656999945640564,0 3,1.343000054359436 3,3 V143.37350463867188 z" id="svg_98" class=""/><path fill="#75AC2C" d="M129.91156005859375,50.876487731933594 c0,0.7820000052452087 -0.6340000033378601,1.4170000553131104 -1.4170000553131104,1.4170000553131104 h-42 c-0.7820000052452087,0 -1.4160000085830688,-0.6340000033378601 -1.4160000085830688,-1.4170000553131104 l0,0 c0,-0.7829999923706055 0.6340000033378601,-1.4170000553131104 1.4160000085830688,-1.4170000553131104 h42 C129.27755737304688,49.46050262451172 129.91156005859375,50.09449005126953 129.91156005859375,50.876487731933594 L129.91156005859375,50.876487731933594 z" id="svg_99" class=""/><path fill="#75AC2C" d="M129.91156005859375,37.96049499511719 c0,0.7820000052452087 -0.8899999856948853,1.4170000553131104 -1.9850000143051147,1.4170000553131104 H69.06454467773438 c-1.0980000495910645,0 -1.9859999418258667,-0.6340000033378601 -1.9859999418258667,-1.4170000553131104 l0,0 c0,-0.7829999923706055 0.8889999985694885,-1.4170000553131104 1.9859999418258667,-1.4170000553131104 h58.861000061035156 C129.0215606689453,36.543495178222656 129.91156005859375,37.17749786376953 129.91156005859375,37.96049499511719 L129.91156005859375,37.96049499511719 z" id="svg_100" class=""/><path fill="#75AC2C" d="M129.91156005859375,114.1264877319336 c0,0.7820000052452087 -0.8899999856948853,1.4170000553131104 -1.9850000143051147,1.4170000553131104 H69.06454467773438 c-1.0980000495910645,0 -1.9859999418258667,-0.6340000033378601 -1.9859999418258667,-1.4170000553131104 l0,0 c0,-0.7829999923706055 0.8889999985694885,-1.4170000553131104 1.9859999418258667,-1.4170000553131104 h58.861000061035156 C129.0215606689453,112.7094955444336 129.91156005859375,113.34349822998047 129.91156005859375,114.1264877319336 L129.91156005859375,114.1264877319336 z" id="svg_101" class=""/><path fill="#75AC2C" d="M128.9125518798828,99.91849517822266 c0,0.7820000052452087 -0.6349999904632568,1.4170000553131104 -1.4170000553131104,1.4170000553131104 h-42 c-0.7820000052452087,0 -1.4170000553131104,-0.6340000033378601 -1.4170000553131104,-1.4170000553131104 l0,0 c0,-0.7829999923706055 0.6349999904632568,-1.4170000553131104 1.4170000553131104,-1.4170000553131104 h42 C128.27755737304688,98.5014877319336 128.9125518798828,99.13549041748047 128.9125518798828,99.91849517822266 L128.9125518798828,99.91849517822266 z" id="svg_102" class=""/><path fill="#75AC2C" d="M128.9125518798828,88.04349517822266 c0,0.7820000052452087 -0.5239999890327454,1.4170000553131104 -1.1710000038146973,1.4170000553131104 h-34.70000076293945 c-0.6470000147819519,0 -1.1720000505447388,-0.6340000033378601 -1.1720000505447388,-1.4170000553131104 l0,0 c0,-0.7829999923706055 0.5239999890327454,-1.4170000553131104 1.1720000505447388,-1.4170000553131104 h34.70000076293945 C128.38755798339844,86.6264877319336 128.9125518798828,87.26049041748047 128.9125518798828,88.04349517822266 L128.9125518798828,88.04349517822266 z" id="svg_103" class=""/><path fill="#75AC2C" d="M129.91156005859375,64.04349517822266 c0,0.7820000052452087 -0.41600000858306885,1.4170000553131104 -0.9290000200271606,1.4170000553131104 h-27.55900001525879 c-0.5139999985694885,0 -0.9300000071525574,-0.6340000033378601 -0.9300000071525574,-1.4170000553131104 l0,0 c0,-0.7829999923706055 0.41600000858306885,-1.4170000553131104 0.9300000071525574,-1.4170000553131104 h27.55900001525879 C129.4955596923828,62.626487731933594 129.91156005859375,63.26049041748047 129.91156005859375,64.04349517822266 L129.91156005859375,64.04349517822266 z" id="svg_104" class=""/><path fill="#75AC2C" d="M129.91156005859375,75.91849517822266 c0,0.7820000052452087 -0.41600000858306885,1.4170000553131104 -0.9290000200271606,1.4170000553131104 h-27.55900001525879 c-0.5139999985694885,0 -0.9300000071525574,-0.6340000033378601 -0.9300000071525574,-1.4170000553131104 l0,0 c0,-0.7829999923706055 0.41600000858306885,-1.4170000553131104 0.9300000071525574,-1.4170000553131104 h27.55900001525879 C129.4955596923828,74.5014877319336 129.91156005859375,75.13549041748047 129.91156005859375,75.91849517822266 L129.91156005859375,75.91849517822266 z" id="svg_105" class=""/><path fill="none" stroke="#75AC2C" stroke-width="3" stroke-miterlimit="10" d="M33.28554916381836,97.1604995727539 c2.6040000915527344,2.6040000915527344 2.825000047683716,6.604000091552734 0.4950000047683716,8.934000015258789 L14.796545028686523,125.07849884033203 c-2.3299999237060547,2.3289999961853027 -6.329999923706055,2.1070001125335693 -8.934000015258789,-0.4959999918937683 l0,0 c-2.6040000915527344,-2.6040000915527344 -2.8239998817443848,-6.603000164031982 -0.4950000047683716,-8.932999610900879 l18.982999801635742,-18.983999252319336 C26.681547164916992,94.33550262451172 30.681547164916992,94.55750274658203 33.28554916381836,97.1604995727539 L33.28554916381836,97.1604995727539 z" id="svg_106" class=""/><g id="svg_107" class="">
		<path fill="#FFFFFF" d="M55.07854461669922,101.4594955444336 c-13.876999855041504,0 -25.16699981689453,-11.289999961853027 -25.16699981689453,-25.16699981689453 s11.289999961853027,-25.16699981689453 25.16699981689453,-25.16699981689453 s25.166000366210938,11.289999961853027 25.166000366210938,25.16699981689453 S68.95454406738281,101.4594955444336 55.07854461669922,101.4594955444336 z" id="svg_65"/>
		<path fill="#75AC2C" d="M55.07854461669922,58.126487731933594 c10.017000198364258,0 18.166000366210938,8.14900016784668 18.166000366210938,18.16699981689453 s-8.14900016784668,18.16699981689453 -18.166000366210938,18.16699981689453 c-10.017999649047852,0 -18.16699981689453,-8.14900016784668 -18.16699981689453,-18.16699981689453 S45.060546875,58.126487731933594 55.07854461669922,58.126487731933594 M55.07854461669922,44.126495361328125 c-17.766000747680664,0 -32.16699981689453,14.401000022888184 -32.16699981689453,32.16699981689453 s14.401000022888184,32.16699981689453 32.16699981689453,32.16699981689453 c17.764999389648438,0 32.16600036621094,-14.401000022888184 32.16600036621094,-32.16699981689453 S72.84254455566406,44.126495361328125 55.07854461669922,44.126495361328125 L55.07854461669922,44.126495361328125 z" id="svg_66"/>
	</g></g></g></svg>