<svg width="150" height="150" xmlns="http://www.w3.org/2000/svg">
	<!-- Created with Method Draw - http://github.com/duopixel/Method-Draw/ -->
	<g>
		<title>background</title>
		<rect fill="none" id="canvas_background" height="152" width="152" y="-1" x="-1"/>
	</g>
	<g>
		<title>Layer 1</title>
		<g id="svg_1">
			<g id="svg_2">
				<path id="svg_1" d="m99.25,33.5c1.104004,0 2,0.895996 2,2l0,85.25c0,1.104004 -0.895996,2 -2,2l-68.25,0c-1.104004,0 -2,-0.895996 -2,-2l0,-85.25c0,-1.104004 0.895996,-2 2,-2l68.25,0m0,-3l-68.25,0c-2.756989,0 -5,2.243011 -5,5l0,85.25c0,2.756989 2.243011,5 5,5l68.25,0c2.756989,0 5,-2.243011 5,-5l0,-85.25c0,-2.757019 -2.243011,-5 -5,-5l0,0z" fill="#76AC2C"/>
			</g>
			<g id="svg_5">
				<path id="svg_3" d="m59.75,38.25c-1.653992,0 -3,-1.346008 -3,-3l0,-5.75c0,-1.653992 1.346008,-3 3,-3l2.31601,0c0.35498,-1.987 2.095978,-3.5 4.18399,-3.5s3.82901,1.513 4.18399,3.5l3.06601,0c1.653992,0 3,1.346008 3,3l0,5.75c0,1.653992 -1.346008,3 -3,3l-13.75,0z" fill="#FFFFFF"/>
				<path id="svg_4" d="m66.25,24c1.795013,0 3.25,1.454987 3.25,3.25c0,0.085999 -0.019012,0.165985 -0.024994,0.25l4.024994,0c1.104004,0 2,0.895996 2,2l0,5.75c0,1.104004 -0.895996,2 -2,2l-13.75,0c-1.104004,0 -2,-0.895996 -2,-2l0,-5.75c0,-1.104004 0.895996,-2 2,-2l3.274994,0c-0.006989,-0.084015 -0.024994,-0.164001 -0.024994,-0.25c0,-1.795013 1.454987,-3.25 3.25,-3.25m0,-2c-2.282013,0 -4.227997,1.463013 -4.950012,3.5l-1.549988,0c-2.205994,0 -4,1.794006 -4,4l0,5.75c0,2.205994 1.794006,4 4,4l13.75,0c2.205994,0 4,-1.794006 4,-4l0,-5.75c0,-2.205994 -1.794006,-4 -4,-4l-2.299988,0c-0.722015,-2.037018 -2.667999,-3.5 -4.950012,-3.5l0,0z" fill="#76AC2C"/>
			</g>
			<g id="svg_10">
				<path id="svg_6" d="m46.375,63.5l32.25,0c0.621002,0 1.125,-0.503998 1.125,-1.125s-0.503998,-1.125 -1.125,-1.125l-32.25,0c-0.621002,0 -1.125,0.503998 -1.125,1.125s0.503998,1.125 1.125,1.125z" fill="#76AC2C"/>
				<path id="svg_7" d="m46.375,71.5l32.25,0c0.621002,0 1.125,-0.503998 1.125,-1.125s-0.503998,-1.125 -1.125,-1.125l-32.25,0c-0.621002,0 -1.125,0.503998 -1.125,1.125s0.503998,1.125 1.125,1.125z" fill="#76AC2C"/>
				<path id="svg_8" d="m78.875,77.250977l-32.25,0c-0.621002,0 -1.125,0.503998 -1.125,1.125s0.503998,1.125 1.125,1.125l32.25,0c0.621002,0 1.125,-0.503998 1.125,-1.125s-0.503998,-1.125 -1.125,-1.125z" fill="#76AC2C"/>
				<path id="svg_9" d="m78.875,85.250977l-32.25,0c-0.621002,0 -1.125,0.503998 -1.125,1.125s0.503998,1.125 1.125,1.125l32.25,0c0.621002,0 1.125,-0.503998 1.125,-1.125s-0.503998,-1.125 -1.125,-1.125z" fill="#76AC2C"/>
			</g>
			<path id="svg_11" d="m128.565002,99.084991c-2.446014,-6.238007 -8.872009,-4.502014 -12.901001,-6.40799c0,0 -6.912994,-1.348022 -6.239014,-7.334015c0.674011,-5.988007 4.554016,-6.324005 6.239014,-13.912994c0.640015,-5.117004 1.872986,-21.752014 -13.536011,-22.018005c-0.188995,-0.005981 -0.367981,-0.001984 -0.552979,-0.002991c-0.184998,0.001007 -0.364014,-0.002991 -0.554016,0.002991c-15.408997,0.265991 -14.175995,16.899994 -13.535004,22.018005c1.686005,7.588013 5.563995,7.924011 6.238007,13.912994c0.674011,5.985992 -6.238007,7.334015 -6.238007,7.334015c-4.028992,1.905975 -10.455994,0.169983 -12.901001,6.40799c-3.118988,7.252014 2.78302,7.588013 2.78302,7.588013l22.106995,0l4.199005,0l22.105988,0c0.001007,-0.000031 5.904999,-0.336029 2.785004,-7.588013z" stroke-miterlimit="10" stroke-width="3" stroke="#76AC2C" fill="#FFFFFF"/>
		</g>
	</g>
</svg>