<svg width="150" height="150" xmlns="http://www.w3.org/2000/svg">
	<!-- Created with Method Draw - http://github.com/duopixel/Method-Draw/ -->
	<g>
		<title>background</title>
		<rect fill="none" id="canvas_background" height="152" width="152" y="-1" x="-1"/>
	</g>
	<g>
		<title>Layer 1</title>
		<g id="svg_1">
			<g id="svg_2">
				<path id="svg_1" d="m139.703003,30.35199c-0.645996,8.971985 -3.765015,33.834991 -18.751007,50.183014l-0.022003,0.023987l-0.022003,0.024994c-8.070984,9.20401 -17.699982,13.871002 -28.618988,13.871002c-4.910004,0 -8.846985,-1 -10.885986,-1.648987c-2.081024,-4.917023 -8.050018,-23.262024 9.410004,-40.723022l0.02298,-0.02298l0.02301,-0.024017c15.292999,-15.981995 39.927002,-20.526978 48.843994,-21.68399m3.165985,-3.35199c0,0 -34.265991,2.152985 -54.178009,22.963013c-19.947998,19.947998 -11.269989,41.394989 -9.72998,44.742981l-0.286011,0.304993c0,0 5.575989,2.446014 13.613007,2.446014c8.720978,0 20.339996,-2.880005 30.875,-14.893005c19.463013,-21.231995 19.705994,-55.563995 19.705994,-55.563995l0,0z" fill="#75AC2C"/>
			</g>
			<path id="svg_3" d="m81.940002,93.669983l-0.941986,-0.94101c-0.781006,-0.781006 -2.015015,-1.019989 -2.796021,-0.235992l-17.684998,17.828003l-9.846008,-9.846008c1.604004,-4.539978 4.251007,-16.549988 -7.036987,-27.835999c-13.096985,-13.687988 -35.634003,-15.102997 -35.634003,-15.102997s0.160004,22.579987 12.960999,36.545013c9.136017,10.417999 19.511017,10.391998 25.123016,9.350983l10.675995,10.675995l-3.436005,3.463013c-0.781006,0.781006 -0.781006,2.048981 0,2.829987l0.942993,0.94101c0.781006,0.781006 2.046997,0.781006 2.82901,0l24.875,-25.079987c0.783997,-0.782013 0.75,-1.811005 -0.031006,-2.59201z" fill="#75AC29"/>
		</g>
	</g>
</svg>