<svg version="1.1" xmlns="http://www.w3.org/2000/svg" xmlns:xlink="http://www.w3.org/1999/xlink" width="150" height="150" enable-background="new 0 0 637.8 850.39" xml:space="preserve"><rect id="backgroundrect" width="100%" height="100%" x="0" y="0" fill="none" stroke="none" style="" class=""/>








<g class="currentLayer" style=""><title>Layer 1</title><g class="" id="svg_13">
	<g id="svg_83">
		<path fill="#FFFFFF" d="M69.76519775390625,135.2322244644165 c-33.2660026550293,0 -60.232215881347656,-26.966211318969727 -60.232215881347656,-60.23099899291992 s26.966211318969727,-60.23099899291992 60.232215881347656,-60.23099899291992 c14.971892356872559,0 28.657766342163086,5.475323677062988 39.19435119628906,14.517644882202148 l-10.73022174835205,5.608066082000732 l24.548837661743164,7.945065021514893 l-5.475323677062988,-24.35520362854004 l-6.254729747772217,8.785362243652344 l-0.004871285054832697,0.003653463441878557 c-11.066339492797852,-9.585470199584961 -25.488996505737305,-15.3981294631958 -41.27926254272461,-15.3981294631958 c-34.86378479003906,0 -63.12453842163086,28.259538650512695 -63.12453842163086,63.123321533203125 c0,34.86256790161133 28.260757446289062,63.123321533203125 63.12453842163086,63.123321533203125 c11.139410018920898,0 21.59805679321289,-2.8971962928771973 30.683002471923828,-7.960896968841553 l-1.770711898803711,-2.3175137042999268 C90.09426879882812,132.55181980133057 80.24459838867188,135.2322244644165 69.76519775390625,135.2322244644165 z" id="svg_15"/>
		<path fill="#FFFFFF" d="M17.85679817199707,41.66217517852783 c0,0 6.802748680114746,-3.653463363647461 4.694700717926025,1.0655934810638428 s-5.151383399963379,6.850244045257568 -5.455838680267334,10.04702377319336 s2.283414363861084,6.545788288116455 1.3700487613677979,7.915837287902832 s-0.6089105606079102,4.719057083129883 0.15222764015197754,4.719057083129883 s-0.9133658409118652,2.7400975227355957 -0.4566829204559326,4.262373924255371 s2.7400975227355957,1.5222764015197754 3.5012357234954834,2.4356422424316406 s0.9158014059066772,3.653463363647461 1.2945438623428345,5.7846503257751465 s0.6856333017349243,5.7846503257751465 0,7.611382007598877 s0.6844154596328735,5.936877727508545 2.8156025409698486,6.545788288116455 s7.154698848724365,2.1311869621276855 9.28588581085205,9.133657455444336 s3.5012357234954834,9.28588581085205 5.480195045471191,9.894797325134277 s6.241333484649658,2.283414363861084 8.524747848510742,1.8267316818237305 s0.15222764015197754,-3.1967804431915283 -1.3700487613677979,-3.5012357234954834 s-3.294205904006958,-3.957918643951416 -2.332127332687378,-6.241333484649658 s1.0168806314468384,-3.8056910037994385 0,-4.719057083129883 s-1.4187614917755127,-3.1541566848754883 0,-3.8604929447174072 s1.5709892511367798,-3.903116464614868 1.1143063306808472,-4.359799861907959 s-2.685295581817627,-1.8815336227416992 -1.1143063306808472,-3.4525227546691895 s-0.10351479798555374,-7.20341157913208 -4.67034387588501,-7.20341157913208 s-5.63242244720459,-1.8815336227416992 -6.089105606079102,-2.5391571521759033 s-5.02351188659668,-1.4711277484893799 -7.002471446990967,-0.37996020913124084 s-4.4146013259887695,-1.8011574745178223 -3.044552803039551,-2.866750955581665 s1.8267316818237305,-3.349008083343506 0.4566829204559326,-3.5012357234954834 s-2.4356422424316406,-2.283414363861084 -0.9133658409118652,-3.653463363647461 s-2.8923251628875732,-1.978959321975708 -2.283414363861084,-4.719057083129883 s2.8923251628875732,-4.719057083129883 4.110146522521973,-2.4356422424316406 s1.2178211212158203,-4.110146522521973 2.1311869621276855,-1.8267316818237305 s1.674504041671753,2.7400975227355957 2.8923251628875732,1.8267316818237305 s-0.15222764015197754,-3.653463363647461 1.674504041671753,-5.327967643737793 s1.8267316818237305,-6.393560886383057 7.763609409332275,-7.002471446990967 s5.53499698638916,-5.285344123840332 4.974799156188965,-6.828322887420654 s2.7888102531433105,-2.5659492015838623 2.4843552112579346,0 s4.110146522521973,1.9156326055526733 3.5012357234954834,-1.5649001598358154 c-0.6089105606079102,-3.4793150424957275 -2.1311869621276855,-2.1092662811279297 -2.8923251628875732,-4.697135925292969 s-3.957918643951416,-3.957918643951416 -4.566828727722168,-1.674504041671753 s-4.110146522521973,7.154698848724365 -5.936877727508545,4.871284484863281 s-1.674504041671753,-5.972194671630859 0.7611382007598877,-6.0306501388549805 s6.393560886383057,-1.7792365550994873 4.110146522521973,-3.5073249340057373 c-2.283414363861084,-1.7268702983856201 -3.653463363647461,-3.2601072788238525 -5.327967643737793,-0.8135044574737549 c-1.674504041671753,2.4478204250335693 -8.499174118041992,5.430264472961426 -8.511351585388184,3.7801167964935303 s-2.44903826713562,-0.431108683347702 -4.88468074798584,2.461216449737549 S17.85679817199707,41.66217517852783 17.85679817199707,41.66217517852783 z" id="svg_16"/>
		<path fill="#FFFFFF" d="M65.80854797363281,23.39486026763916 c0,0 -3.044552803039551,2.541592597961426 0,4.314740180969238 c3.044552803039551,1.7743654251098633 4.566828727722168,1.9265930652618408 3.957918643951416,4.666690826416016 s2.7400975227355957,3.8056910037994385 3.349008083343506,2.587869882583618 s1.978959321975708,-4.262373924255371 3.653463363647461,-0.4566829204559326 s-0.15222764015197754,12.482666969299316 1.5222764015197754,14.766080856323242 s5.327967643737793,5.63242244720459 3.349008083343506,7.002471446990967 s-1.978959321975708,7.154698848724365 -0.6089105606079102,6.241333484649658 s7.002471446990967,-4.262373924255371 7.154698848724365,1.0655934810638428 s-4.262373924255371,7.763609409332275 -5.480195045471191,4.871284484863281 s-7.611382007598877,-2.587869882583618 -8.829202651977539,-0.4566829204559326 s-1.674504041671753,4.110146522521973 -3.653463363647461,5.175739765167236 s-0.3044552803039551,13.852714538574219 3.349008083343506,12.634893417358398 s6.545788288116455,-0.15222764015197754 6.698016166687012,-2.587869882583618 s2.7400975227355957,-5.02351188659668 4.719057083129883,-3.044552803039551 s-2.283414363861084,1.2178211212158203 -3.044552803039551,1.8267316818237305 s-0.6089105606079102,4.719057083129883 1.2178211212158203,5.63242244720459 s2.587869882583618,5.066135406494141 0.9133658409118652,6.94766902923584 s-2.4356422424316406,10.101825714111328 -0.9133658409118652,7.513956069946289 s4.566828727722168,-3.653463363647461 7.611382007598877,-4.110146522521973 s4.566828727722168,-3.349008083343506 4.4146013259887695,-6.241333484649658 s-0.3044552803039551,-6.241333484649658 2.1311869621276855,-8.06806468963623 s-0.15222764015197754,-4.4146013259887695 -1.674504041671753,-3.957918643951416 s-2.283414363861084,-3.8056910037994385 -3.653463363647461,-6.850244045257568 s-3.8056910037994385,-7.002471446990967 -1.3700487613677979,-7.4591546058654785 s3.5012357234954834,0.9133658409118652 3.653463363647461,2.587869882583618 s3.653463363647461,-0.8707420229911804 2.7400975227355957,-5.001590728759766 s-1.043672800064087,-7.328847408294678 1.3042863607406616,-6.719936847686768 s7.068233489990234,-0.7611382007598877 3.56699800491333,-5.936877727508545 s-8.220293045043945,-8.524747848510742 -8.06806468963623,-12.025983810424805 s-0.7611382007598877,-5.7846503257751465 -6.393560886383057,-8.06806468963623 s-8.06806468963623,-2.9386024475097656 -11.721528053283691,-2.535503625869751 c-3.653463363647461,0.40431660413742065 -7.306926727294922,-1.11795973777771 -7.4591546058654785,-3.096919059753418 S65.80854797363281,23.39486026763916 65.80854797363281,23.39486026763916 z" id="svg_17"/>
	</g>
	<g id="svg_85">
		<path fill="#FFFFFF" d="M126.99668884277344,123.36337375640869 v9.835124015808105 h-4.71418571472168 v-9.473430633544922 c-6.436184406280518,0 -11.664290428161621,-1.2981972694396973 -15.681882858276367,-3.8970274925231934 v-7.886609077453613 c1.7512266635894775,1.5417615175247192 4.14668083190918,2.8326518535614014 7.182708740234375,3.8751065731048584 c3.037245988845825,1.0412369966506958 5.869897842407227,1.5636824369430542 8.499174118041992,1.5636824369430542 v-23.206798553466797 c-6.648085594177246,-3.2028696537017822 -10.953083992004395,-6.157303810119629 -12.917428970336914,-8.86086654663086 c-1.9643454551696777,-2.7035627365112305 -2.945909261703491,-5.90034294128418 -2.945909261703491,-9.586688041687012 c0,-4.381720066070557 1.4967020750045776,-8.165491104125977 4.4876708984375,-11.352527618408203 c2.990968704223633,-3.188255548477173 6.78326416015625,-5.1002349853515625 11.376885414123535,-5.734719753265381 v-8.158183097839355 h4.71418571472168 v7.9779462814331055 c5.921046257019043,0.1802375316619873 10.016578674316406,1.0278409719467163 12.282944679260254,2.5379393100738525 v7.7051544189453125 c-3.0823051929473877,-2.417374849319458 -7.17783784866333,-3.716789960861206 -12.282944679260254,-3.8970274925231934 v23.930185317993164 c6.283957004547119,2.9921863079071045 10.582864761352539,5.885729789733887 12.89428997039795,8.680628776550293 c2.311424493789673,2.7948994636535645 3.4683544635772705,5.975848197937012 3.4683544635772705,9.540410995483398 c0,4.291601181030273 -1.4443358182907104,7.893916606903076 -4.3293538093566895,10.81059741973877 S132.1334686279297,122.54745578765869 126.99668884277344,123.36337375640869 zM122.28254699707031,86.19545078277588 v-21.121891021728516 c-2.5379393100738525,0.5139204859733582 -4.547343730926514,1.6404050588607788 -6.028214454650879,3.3770179748535156 s-2.220088005065918,3.844661235809326 -2.220088005065918,6.321709632873535 c0,2.600048065185547 0.6040392518043518,4.730017185211182 1.8121178150177002,6.391125679016113 C117.05439758300781,82.82815647125244 119.201416015625,84.50511264801025 122.28254699707031,86.19545078277588 zM126.99668884277344,96.53109073638916 v20.486186981201172 c5.83092737197876,-1.2689696550369263 8.74760913848877,-4.412166118621826 8.74760913848877,-9.427153587341309 C135.74435424804688,103.41909885406494 132.82765197753906,99.73397159576416 126.99668884277344,96.53109073638916 z" id="svg_19"/>
	</g>
</g></g></svg>