<svg width="150" height="150" xmlns="http://www.w3.org/2000/svg">
	<!-- Created with Method Draw - http://github.com/duopixel/Method-Draw/ -->
	<g>
		<title>background</title>
		<rect fill="none" id="canvas_background" height="152" width="152" y="-1" x="-1"/>
	</g>
	<g>
		<title>Layer 1</title>
		<g id="svg_1">
			<path id="svg_1" d="m110.583008,87.284973c0,-5.585999 -2.087006,-10.68399 -5.519012,-14.563995l-2.28598,2.285004c2.85199,3.294006 4.589996,7.579987 4.589996,12.278992c0,4.854004 -1.863007,9.257996 -4.886993,12.589996l-3.969025,-3.929993c2.156006,-2.403992 3.478027,-5.571991 3.478027,-9.057007c0,-3.450989 -1.289001,-6.60199 -3.409027,-8.997986l-1.411987,1.411987c1.761993,2.036987 2.835999,4.68399 2.835999,7.585999c0,2.938995 -1.102997,5.61499 -2.906006,7.65799l-4.22699,-4.185974c0.354004,-0.60202 0.571991,-1.297028 0.571991,-2.047028c0,-2.23999 -1.817993,-4.05899 -4.061005,-4.05899c-0.764984,0 -1.471985,0.222992 -2.082001,0.59201l-15.737,-15.580994l-2.603973,2.630981l2.117981,2.097015c-2.811005,3.692993 -4.496002,8.290985 -4.496002,13.290985c0,6.542999 2.858002,12.414001 7.390015,16.442993l2.28598,-2.286987c-3.951996,-3.442993 -6.460999,-8.501984 -6.460999,-14.156006c0,-4.117004 1.348022,-7.903992 3.597015,-10.997986l3.470001,3.436005c-1.296997,2.082001 -2.056,4.53299 -2.056,7.165985c0,4.041016 1.765991,7.667999 4.565979,10.15799l1.412018,-1.411987c-2.44101,-2.126984 -3.992004,-5.251984 -3.992004,-8.746002c0,-2.085999 0.562988,-4.03299 1.528992,-5.722992l7.020996,6.950989c-0.002991,0.06601 -0.020996,0.131012 -0.020996,0.197021c0,2.243988 1.818024,4.062988 4.061005,4.062988c0.082001,0 0.15799,-0.019989 0.238007,-0.024994l16.285004,16.122986l2.604004,-2.628998l-3.729004,-3.69101c3.597992,-3.915985 5.800995,-9.132996 5.800995,-14.868988z" fill="#76AC2C"/>
			<g id="svg_3">
				<path id="svg_2" d="m88.583008,44.666992c0.420013,0 0.834015,0.020996 1.252014,0.031006c-1.238007,-19.919006 -17.942017,-35.697998 -38.377014,-35.697998c-21.23999,0 -38.458008,17.043976 -38.458008,38.067993c0,10.463989 4.266998,19.938995 11.170013,26.820984l-7.414001,12.237l17.174988,-5.175995c3.035004,1.541016 6.307007,2.684021 9.740997,3.38501c2.550995,-22.319 21.679993,-39.667999 44.911011,-39.667999z" fill="#76AC2C"/>
			</g>
			<g id="svg_5">
				<path id="svg_4" d="m88.583008,44.666992c0.420013,0 0.834015,0.020996 1.252014,0.031006c24.386993,0.65799 43.954987,20.419983 43.954987,44.718994c0,12.300995 -5.015991,23.438995 -13.131012,31.527008l8.715027,14.386993l-20.189026,-6.085999c-6.179993,3.139008 -13.178986,4.921997 -20.60199,4.921997c-24.968994,0 -45.208984,-20.035004 -45.208984,-44.75c0,-1.718994 0.108002,-3.411987 0.297974,-5.082001c2.550995,-22.319 21.679993,-39.667999 44.911011,-39.667999m0,-3c-24.54599,0 -45.13501,18.196991 -47.890991,42.328003c-0.210999,1.850006 -0.317993,3.673981 -0.317993,5.423004c0,26.328979 21.625977,47.75 48.208984,47.75c7.30899,0 14.321014,-1.583008 20.867004,-4.709015l19.057983,5.744995l7.479004,2.255005l-4.046997,-6.682007l-7.523987,-12.42099c7.997009,-8.781006 12.373993,-20.03299 12.373993,-31.937988c0,-12.528015 -4.864014,-24.365997 -13.695007,-33.331024c-8.806,-8.937988 -20.588989,-14.047974 -33.178986,-14.38797l-0.386017,-0.012024c-0.313995,-0.01001 -0.628998,-0.019989 -0.946991,-0.019989l0,0z" fill="#76AC2C"/>
			</g>
		</g>
	</g>
</svg>