<svg version="1.1" xmlns="http://www.w3.org/2000/svg" xmlns:xlink="http://www.w3.org/1999/xlink" width="150" height="150" enable-background="new 0 0 637.8 850.39" xml:space="preserve"><rect id="backgroundrect" width="100%" height="100%" x="0" y="0" fill="none" stroke="none" style="" class=""/>








<g class="currentLayer" style=""><title>Layer 1</title><g class="" id="svg_7">
	<path fill="none" stroke="#75AC2C" stroke-width="2" stroke-miterlimit="10" d="M101.50081634521484,137.6070041656494 c0,1.4455078840255737 -1.1723222732543945,2.6178300380706787 -2.6178300380706787,2.6178300380706787 h-29.00874137878418 c-1.4466956853866577,0 -2.6178300380706787,-1.1723222732543945 -2.6178300380706787,-2.6178300380706787 v-29.00874137878418 c0,-1.4455078840255737 1.1711344718933105,-2.6178300380706787 2.6178300380706787,-2.6178300380706787 h29.00874137878418 c1.4455078840255737,0 2.6178300380706787,1.1723222732543945 2.6178300380706787,2.6178300380706787 V137.6070041656494 z" id="svg_3"/>
	<path fill="none" stroke="#75AC2C" stroke-width="2" stroke-miterlimit="10" d="M101.89627838134766,41.4017333984375 c0,1.4455078840255737 -1.1723222732543945,2.6178300380706787 -2.6178300380706787,2.6178300380706787 h-29.00874137878418 c-1.4466956853866577,0 -2.6178300380706787,-1.1723222732543945 -2.6178300380706787,-2.6178300380706787 v-29.00874137878418 c0,-1.4455078840255737 1.1711344718933105,-2.6178300380706787 2.6178300380706787,-2.6178300380706787 h29.00874137878418 c1.4455078840255737,0 2.6178300380706787,1.1723222732543945 2.6178300380706787,2.6178300380706787 V41.4017333984375 z" id="svg_5"/>
	<path fill="#75AC2C" stroke="#75AC2C" stroke-width="2" stroke-miterlimit="10" d="M81.11042022705078,89.50614356994629 c0,1.4455078840255737 -1.1723222732543945,2.6178300380706787 -2.6178300380706787,2.6178300380706787 h-29.00874137878418 c-1.4466956853866577,0 -2.6178300380706787,-1.1723222732543945 -2.6178300380706787,-2.6178300380706787 v-29.00874137878418 c0,-1.4455078840255737 1.1711344718933105,-2.6178300380706787 2.6178300380706787,-2.6178300380706787 h29.00874137878418 c1.4455078840255737,0 2.6178300380706787,1.1723222732543945 2.6178300380706787,2.6178300380706787 V89.50614356994629 z" id="svg_7"/>
	<path fill="#75AC2C" d="M129.45834350585938,25.86102294921875 H102.4854507446289 c-1.4799530506134033,0 -1.7293832302093506,0.7708582878112793 -1.7293832302093506,2.2496235370635986 v0.17222565412521362 h28.091787338256836 c0.7007802724838257,0 0.9157654643058777,0.6972170472145081 0.9157654643058777,1.0297906398773193 v43.2547721862793 c0,0.33257371187210083 0.14609487354755402,1.6901869773864746 -0.9312063455581665,1.6414886713027954 h-26.242441177368164 v-9.056694030761719 l-14.945624351501465,10.07223129272461 l14.945624351501465,10.119743347167969 v-8.747876167297363 h26.868392944335938 c1.4787652492523193,0 2.678406238555908,-1.1996408700942993 2.678406238555908,-2.677218198776245 v-45.37968444824219 C132.13674926757812,27.0606746673584 130.93710327148438,25.86102294921875 129.45834350585938,25.86102294921875 z" id="svg_9"/>
	<path fill="#75AC2C" d="M20.54163932800293,73.12212944030762 h26.97291374206543 c1.4799530506134033,0 1.7293832302093506,0.7708582878112793 1.7293832302093506,2.2496235370635986 v0.17222565412521362 h-28.091787338256836 c-0.7007802724838257,0 -0.9157654643058777,0.6972170472145081 -0.9157654643058777,1.0297906398773193 v43.2547721862793 c0,0.33257371187210083 -0.14609487354755402,1.6901869773864746 0.9312063455581665,1.6414886713027954 h26.242441177368164 v-9.056694030761719 l14.945624351501465,10.07223129272461 l-14.945624351501465,10.119743347167969 v-8.747876167297363 H20.54163932800293 c-1.4787652492523193,0 -2.678406238555908,-1.1996408700942993 -2.678406238555908,-2.677218198776245 v-45.37968444824219 C17.863264083862305,74.32177925109863 19.06287956237793,73.12212944030762 20.54163932800293,73.12212944030762 z" id="svg_11"/>
</g></g></svg>