<svg version="1.1" xmlns="http://www.w3.org/2000/svg" xmlns:xlink="http://www.w3.org/1999/xlink" width="150" height="150" enable-background="new 0 0 637.8 850.39" xml:space="preserve" style=""><rect id="backgroundrect" width="100%" height="100%" x="0" y="0" fill="none" stroke="none" style="" class=""/>








<g class="currentLayer" style=""><title>Layer 1</title>
	
	
	
	
	
	
	
	
	
	
<g class="" id="svg_20">
	<path fill="none" stroke="#75AC2C" stroke-width="3" stroke-miterlimit="10" d="M120.39285278320312,128.7977409362793 c0,2.074923276901245 -1.6817272901535034,3.756650447845459 -3.756650447845459,3.756650447845459 h-83.27241516113281 c-2.0736711025238037,0 -3.756650447845459,-1.6817272901535034 -3.756650447845459,-3.756650447845459 v-106.43843078613281 c0,-2.074923276901245 1.6829793453216553,-3.756650447845459 3.756650447845459,-3.756650447845459 h83.27241516113281 c2.074923276901245,0 3.756650447845459,1.6817272901535034 3.756650447845459,3.756650447845459 V128.7977409362793 z" id="svg_3"/>
	<path fill="#FFFFFF" stroke="#75AC2C" stroke-width="2" stroke-miterlimit="10" d="M83.61900329589844,10.719940185546875 h-4.446621894836426 c-0.5359488129615784,-1.7180414199829102 -2.1200029850006104,-2.9740149974823 -4.015859127044678,-2.9740149974823 s-3.478658437728882,1.2559734582901 -4.015859127044678,2.9740149974823 h-4.758423805236816 c-1.463841438293457,0 -2.6521952152252197,1.1871016025543213 -2.6521952152252197,2.6521952152252197 v8.839398384094238 c0,1.463841438293457 1.1883537769317627,2.6521952152252197 2.6521952152252197,2.6521952152252197 h17.236764907836914 c1.4650936126708984,0 2.6509430408477783,-1.1871016025543213 2.6509430408477783,-2.6521952152252197 v-8.839398384094238 C86.26994323730469,11.907039642333984 85.0841064453125,10.719940185546875 83.61900329589844,10.719940185546875 z" id="svg_5"/>
	<path fill="#75AC2C" d="M102.65397644042969,56.06521987915039 c0,0.9792335629463196 -0.7951576709747314,1.7743912935256958 -1.7731389999389648,1.7743912935256958 h-52.59310531616211 c-0.980485737323761,0 -1.7756434679031372,-0.7939054369926453 -1.7756434679031372,-1.7743912935256958 l0,0 c0,-0.980485737323761 0.7951576709747314,-1.7743912935256958 1.7756434679031372,-1.7743912935256958 h52.59310531616211 C101.86001586914062,54.29084396362305 102.65397644042969,55.08475112915039 102.65397644042969,56.06521987915039 L102.65397644042969,56.06521987915039 z" id="svg_7"/>
	<path fill="#75AC2C" d="M102.65397644042969,66.29206466674805 c0,0.9792335629463196 -0.7951576709747314,1.7743912935256958 -1.7731389999389648,1.7743912935256958 h-52.59310531616211 c-0.980485737323761,0 -1.7756434679031372,-0.7939054369926453 -1.7756434679031372,-1.7743912935256958 l0,0 c0,-0.980485737323761 0.7951576709747314,-1.7743912935256958 1.7756434679031372,-1.7743912935256958 h52.59310531616211 C101.86001586914062,64.51768112182617 102.65397644042969,65.31158828735352 102.65397644042969,66.29206466674805 L102.65397644042969,66.29206466674805 z" id="svg_9"/>
	<path fill="#75AC2C" d="M102.65397644042969,76.30857467651367 c0,0.9792335629463196 -0.7951576709747314,1.7743912935256958 -1.7731389999389648,1.7743912935256958 h-52.59310531616211 c-0.980485737323761,0 -1.7756434679031372,-0.7939054369926453 -1.7756434679031372,-1.7743912935256958 l0,0 c0,-0.980485737323761 0.7951576709747314,-1.7743912935256958 1.7756434679031372,-1.7743912935256958 h52.59310531616211 C101.86001586914062,74.53415298461914 102.65397644042969,75.32806777954102 102.65397644042969,76.30857467651367 L102.65397644042969,76.30857467651367 z" id="svg_11"/>
	<path fill="#75AC2C" d="M102.65397644042969,86.53541946411133 c0,0.9792335629463196 -0.7951576709747314,1.7743912935256958 -1.7731389999389648,1.7743912935256958 h-52.59310531616211 c-0.980485737323761,0 -1.7756434679031372,-0.7939054369926453 -1.7756434679031372,-1.7743912935256958 l0,0 c0,-0.980485737323761 0.7951576709747314,-1.7743912935256958 1.7756434679031372,-1.7743912935256958 h52.59310531616211 C101.86001586914062,84.76103591918945 102.65397644042969,85.55495071411133 102.65397644042969,86.53541946411133 L102.65397644042969,86.53541946411133 z" id="svg_13"/>
	<path fill="#75AC2C" d="M102.65397644042969,97.17926406860352 c0,0.9792335629463196 -0.7951576709747314,1.7743912935256958 -1.7731389999389648,1.7743912935256958 h-52.59310531616211 c-0.980485737323761,0 -1.7756434679031372,-0.7939054369926453 -1.7756434679031372,-1.7743912935256958 l0,0 c0,-0.980485737323761 0.7951576709747314,-1.7743912935256958 1.7756434679031372,-1.7743912935256958 h52.59310531616211 C101.86001586914062,95.40488052368164 102.65397644042969,96.19878768920898 102.65397644042969,97.17926406860352 L102.65397644042969,97.17926406860352 z" id="svg_15"/>
	<g id="svg_17">
		<path fill="#75AC2C" d="M87.99174499511719,140.37699508666992 c-1.066888689994812,0 -2.0611488819122314,-0.40697044134140015 -2.7987043857574463,-1.1457784175872803 l-9.311484336853027,-9.341537475585938 c-1.5414788722991943,-1.5427311658859253 -1.6003330945968628,-3.8405487537384033 -0.17280592024326324,-5.437125205993652 l0.11269951611757278,-0.18282365798950195 l0.1552748829126358,-0.1552748829126358 c0.802670955657959,-0.802670955657959 1.8582897186279297,-1.2447035312652588 2.975267171859741,-1.2447035312652588 c1.0656365156173706,0 2.0611488819122314,0.4094748795032501 2.8024611473083496,1.1520395278930664 l6.395071029663086,6.417611122131348 l12.537195205688477,-12.537195205688477 c0.7425645589828491,-0.7425645589828491 1.739329218864441,-1.1520395278930664 2.80371356010437,-1.1520395278930664 c1.1169774532318115,0 2.1725962162017822,0.44203251600265503 2.975267171859741,1.2447035312652588 c1.6178642511367798,1.6178642511367798 1.6604394912719727,4.208700656890869 0.09266404807567596,5.777728080749512 l-15.461121559143066,15.459868431091309 c-0.7375556826591492,0.7388079166412354 -1.7330679893493652,1.1457784175872803 -2.7987043857574463,1.1457784175872803 C88.30105590820312,140.37699508666992 88.04306030273438,140.37699508666992 87.99174499511719,140.37699508666992 z" id="svg_29"/>
		<path fill="#FFFFFF" d="M103.49166870117188,118.62722396850586 c0.5860374569892883,0 1.184597134590149,0.2341645509004593 1.6466652154922485,0.6949803233146667 c0.8878217339515686,0.8865694999694824 0.9291448593139648,2.2852957248687744 0.09266404807567596,3.121776580810547 l-15.461121559143066,15.459868431091309 c-0.4007093608379364,0.4007093608379364 -0.9303970336914062,0.594802975654602 -1.4713547229766846,0.594802975654602 c-0.05134088918566704,0 -0.10268177837133408,-0.001252216869033873 -0.154022678732872,-0.005008867476135492 c-0.05134088918566704,0.0037566504906862974 -0.10268177837133408,0.005008867476135492 -0.154022678732872,0.005008867476135492 c-0.5409576892852783,0 -1.0693931579589844,-0.19284139573574066 -1.4713547229766846,-0.594802975654602 l-9.308979988098145,-9.340285301208496 c-0.8364807963371277,-0.8364807963371277 -0.8915783762931824,-2.077427864074707 -0.0037566504906862974,-2.9639973640441895 l0.09642069786787033,-0.15777932107448578 c0.46081578731536865,-0.46081578731536865 1.0606276988983154,-0.6949803233146667 1.6466652154922485,-0.6949803233146667 c0.5422098636627197,0 1.0731498003005981,0.1991024613380432 1.4751113653182983,0.6010640859603882 l7.721168518066406,7.748717784881592 l13.867049217224121,-13.867049217224121 C102.41853332519531,118.82632064819336 102.95074462890625,118.62722396850586 103.49166870117188,118.62722396850586 M103.49166870117188,114.87057113647461 c-1.5677753686904907,0 -3.036625623703003,0.604820728302002 -4.132315635681152,1.703014850616455 l-11.20608901977539,11.20608901977539 l-5.065217018127441,-5.082747936248779 c-1.1006985902786255,-1.1006985902786255 -2.5682969093322754,-1.7067716121673584 -4.136072158813477,-1.7067716121673584 c-1.6178642511367798,0 -3.1468207836151123,0.6373783349990845 -4.303869247436523,1.795678973197937 l-0.3118019700050354,0.3105497658252716 l-0.14901380240917206,0.242930069565773 c-1.9484493732452393,2.3203577995300293 -1.8257319927215576,5.685064315795898 0.3668995499610901,7.878948211669922 l9.30522346496582,9.336528778076172 c1.0969419479370117,1.0969419479370117 2.5632877349853516,1.6992582082748413 4.132315635681152,1.6992582082748413 c0.05134088918566704,0 0.10268177837133408,0 0.154022678732872,-0.002504433738067746 c0.05134088918566704,0.001252216869033873 0.10268177837133408,0.002504433738067746 0.154022678732872,0.002504433738067746 c1.5690276622772217,0 3.0353736877441406,-0.6023163199424744 4.1273064613342285,-1.6955015659332275 l15.461121559143066,-15.459868431091309 c2.3003222942352295,-2.301574468612671 2.257746934890747,-6.084521770477295 -0.09391626715660095,-8.434932708740234 C106.63848876953125,115.5079460144043 105.10957336425781,114.87057113647461 103.49166870117188,114.87057113647461 L103.49166870117188,114.87057113647461 z" id="svg_30"/>
	</g>
</g></g></svg>