<svg width="150" height="150" xmlns="http://www.w3.org/2000/svg">
	<!-- Created with Method Draw - http://github.com/duopixel/Method-Draw/ -->
	<g>
		<title>Layer 1</title>
	</g>
	<g>
		<title>background</title>
		<g id="svg_1">
			<g id="svg_13">
				<path id="svg_12" d="m116.322998,29.955505c1.104004,0 2,0.895996 2,2l0,85.25c0,1.104004 -0.895996,2 -2,2l-68.25,0c-1.104004,0 -2,-0.895996 -2,-2l0,-85.25c0,-1.104004 0.895996,-2 2,-2l68.25,0m0,-3l-68.25,0c-2.757019,0 -5,2.242981 -5,5l0,85.25c0,2.756958 2.242981,5 5,5l68.25,0c2.757019,0 5,-2.243042 5,-5l0,-85.25c0,-2.757019 -2.242981,-5 -5,-5l0,0z" fill="#76AC2C"/>
			</g>
			<g id="svg_16">
				<path id="svg_14" d="m76.822998,34.705505c-1.653992,0 -3,-1.346069 -3,-3l0,-5.75c0,-1.654053 1.346008,-3 3,-3l2.315979,0c0.35498,-1.987061 2.096008,-3.5 4.184021,-3.5s3.828003,1.512939 4.184021,3.5l3.065979,0c1.653992,0 3,1.345947 3,3l0,5.75c0,1.653931 -1.346008,3 -3,3l-13.75,0z" fill="#FFFFFF"/>
				<path id="svg_15" d="m83.322998,20.455505c1.794983,0 3.25,1.454956 3.25,3.25c0,0.085938 -0.019958,0.165955 -0.024963,0.25l4.024963,0c1.104004,0 2,0.895996 2,2l0,5.75c0,1.104004 -0.895996,2 -2,2l-13.75,0c-1.105042,0 -2,-0.895996 -2,-2l0,-5.75c0,-1.104004 0.894958,-2 2,-2l3.274963,0c-0.007935,-0.084045 -0.024963,-0.164063 -0.024963,-0.25c0,-1.795044 1.455017,-3.25 3.25,-3.25m0,-2c-2.281006,0 -4.227966,1.463013 -4.950012,3.5l-1.549988,0c-2.205994,0 -4,1.793945 -4,4l0,5.75c0,2.205933 1.794006,4 4,4l13.75,0c2.205994,0 4,-1.794067 4,-4l0,-5.75c0,-2.206055 -1.794006,-4 -4,-4l-2.299988,0c-0.722046,-2.036987 -2.669006,-3.5 -4.950012,-3.5l0,0z" fill="#76AC2C"/>
			</g>
			<g id="svg_19">
				<path id="svg_17" d="m48.856018,129.650452c-1.869995,-0.495972 -3.692017,-1.208984 -5.414063,-2.117981l-0.800964,-0.422974l0.008972,-5.231995c-1.304932,-1.030029 -2.482971,-2.208008 -3.515015,-3.515015l-5.58197,0.009033l-0.434998,-0.74707c-0.905029,-1.554932 -1.646973,-3.20697 -2.207031,-4.911011l-0.28894,-0.878967l4.106995,-4.093994c-0.096985,-0.825989 -0.146057,-1.659973 -0.146057,-2.488953c0,-0.828003 0.049072,-1.662048 0.146057,-2.487061l-4.367981,-4.354004l0.23999,-0.848999c0.448975,-1.583984 1.053955,-3.133972 1.79895,-4.605957l0.416992,-0.824036l6.31604,0.011047c1.031982,-1.307007 2.208984,-2.484009 3.515015,-3.514038l-0.01001,-6.47699l0.801025,-0.423035c1.418945,-0.748962 2.895996,-1.362976 4.389954,-1.825928l0.866028,-0.269043l4.573975,4.588989c0.821045,-0.095947 1.655029,-0.14502 2.489014,-0.14502s1.666992,0.049072 2.489014,0.14502l4.458008,-4.470947l0.876953,0.286987c1.561035,0.512939 3.083984,1.179932 4.526001,1.984985l0.770996,0.429993l-0.01001,6.174011c1.305054,1.028992 2.483032,2.20697 3.514038,3.513977l5.802979,-0.007996l0.416992,0.822998c0.814026,1.608032 1.460022,3.299988 1.919067,5.028015l0.221924,0.835999l-3.954956,3.942017c0.096985,0.824951 0.145996,1.658936 0.145996,2.487976c0,0.830017 -0.049011,1.664001 -0.145996,2.488953l3.708984,3.697021l-0.268982,0.866028c-0.567017,1.83197 -1.356018,3.621033 -2.343018,5.317993l-0.434998,0.747009l-5.067993,-0.007019c-1.031006,1.307007 -2.208008,2.484009 -3.514038,3.515015l0.008057,4.929016l-0.769043,0.430969c-1.741943,0.973999 -3.604004,1.744995 -5.534973,2.292053l-0.848022,0.23999l-3.477966,-3.487061c-0.827026,0.097046 -1.661011,0.145996 -2.488037,0.145996s-1.661011,-0.04895 -2.487976,-0.145996l-3.579041,3.591064l-0.835938,-0.221069zm6.703003,-32.72699c-4.325073,0 -7.843994,3.518982 -7.843994,7.843994s3.518921,7.843994 7.843994,7.843994s7.843994,-3.518982 7.843994,-7.843994s-3.519043,-7.843994 -7.843994,-7.843994z" fill="#FFFFFF"/>
				<path id="svg_18" d="m48.274963,81.334473l4.460022,4.473999c0.986023,-0.152039 1.997009,-0.230042 3.025024,-0.230042s2.039001,0.078003 3.024963,0.230042l4.331055,-4.343994c1.489014,0.487976 2.916016,1.117004 4.262939,1.868958l-0.01001,6.037048c1.634033,1.195007 3.07605,2.638 4.272034,4.270996l5.625,-0.007996c0.757996,1.496948 1.367004,3.079956 1.807007,4.734985l-3.869995,3.856995c0.152039,0.986023 0.231995,1.997009 0.231995,3.023987c0,1.029053 -0.079956,2.039063 -0.231995,3.026001l3.593994,3.582031c-0.546997,1.765015 -1.294983,3.440002 -2.20697,5.009033l-4.949036,-0.00708c-1.195984,1.634033 -2.638,3.07605 -4.272034,4.272034l0.00708,4.79303c-1.631042,0.911987 -3.377075,1.638977 -5.21106,2.157959l-3.380005,-3.390015c-0.985962,0.151001 -1.996948,0.231018 -3.024963,0.231018s-2.039001,-0.080017 -3.025024,-0.231018l-3.493958,3.505005c-1.789063,-0.474976 -3.496033,-1.147949 -5.098999,-1.994019l0.007935,-5.07196c-1.633972,-1.195984 -3.075928,-2.638977 -4.272949,-4.272034l-5.463013,0.009033c-0.844971,-1.453003 -1.545044,-3.001953 -2.078979,-4.625977l3.97998,-3.967041c-0.151978,-0.986938 -0.231018,-1.996948 -0.231018,-3.026001c0,-1.026978 0.080017,-2.037964 0.231018,-3.023987l-4.270996,-4.257019c0.427979,-1.511963 0.997986,-2.960938 1.69397,-4.338013l6.138062,0.01001c1.19696,-1.633972 2.638916,-3.075928 4.272949,-4.270996l-0.01001,-6.315979c1.314026,-0.691956 2.695007,-1.27301 4.135986,-1.718994m7.284058,32.776001c5.161011,0 9.343994,-4.184021 9.343994,-9.343994s-4.182983,-9.343994 -9.343994,-9.343994s-9.343994,4.184021 -9.343994,9.343994s4.182983,9.343994 9.343994,9.343994m-6.440063,-36.179016l-1.731934,0.536987c-1.582031,0.489014 -3.145996,1.140015 -4.645996,1.932007l-1.603027,0.846069l0.002991,1.812988l0.007019,4.856934c-0.983032,0.829041 -1.894043,1.739014 -2.723999,2.723999l-4.680054,-0.007935l-1.847961,-0.003052l-0.834045,1.648071c-0.78894,1.55896 -1.428955,3.197998 -1.903931,4.875l-0.481018,1.69696l1.248962,1.244995l3.239014,3.227966c-0.053955,0.643066 -0.082031,1.287048 -0.082031,1.929077c0,0.642944 0.027039,1.286987 0.082031,1.929932l-2.947998,2.937988l-1.309998,1.30603l0.576965,1.755981c0.593018,1.804016 1.378052,3.55304 2.335083,5.197998l0.868958,1.494019l1.729004,-0.002991l4.005005,-0.007019c0.830017,0.984009 1.73999,1.89502 2.723999,2.723999l-0.006042,3.614014l-0.00293,1.812988l1.602966,0.846008c1.82196,0.961975 3.75,1.716003 5.730042,2.240051l1.671997,0.44397l1.220947,-1.226013l2.465027,-2.473999c0.643005,0.054993 1.288025,0.08197 1.929016,0.08197s1.286011,-0.026978 1.928955,-0.08197l2.352051,2.357971l1.244995,1.249023l1.69696,-0.47998c2.04303,-0.578979 4.013977,-1.395996 5.857971,-2.427002l1.539063,-0.859985l-0.003052,-1.763062l-0.005005,-3.333984c0.983032,-0.829956 1.894043,-1.73999 2.723999,-2.724976l3.491028,0.005005l1.729004,0.001953l0.868958,-1.493958c1.04303,-1.794006 1.878052,-3.688049 2.479004,-5.628967l0.537048,-1.732056l-1.283997,-1.279968l-2.562988,-2.55304c0.054932,-0.642944 0.08197,-1.287964 0.08197,-1.930969s-0.027039,-1.287048 -0.08197,-1.929016l2.838013,-2.828003l1.225952,-1.221985l-0.44397,-1.673035c-0.484985,-1.828979 -1.16803,-3.619995 -2.029053,-5.319946l-0.833984,-1.64801l-1.846985,0.002991l-4.166992,0.005981c-0.830017,-0.984009 -1.73999,-1.89502 -2.723999,-2.723999l0.007019,-4.578003l0.00293,-1.765015l-1.540955,-0.859009c-1.526001,-0.852966 -3.138,-1.55896 -4.791016,-2.100952l-1.754944,-0.575012l-1.304077,1.308044l-3.302979,3.312988c-0.640015,-0.054016 -1.284973,-0.081055 -1.928955,-0.081055s-1.289063,0.027039 -1.929016,0.081055l-3.432007,-3.442017l-1.277039,-1.285034l0,0zm6.440063,33.179016c-3.498047,0 -6.343994,-2.846008 -6.343994,-6.343994s2.845947,-6.343994 6.343994,-6.343994s6.343994,2.846008 6.343994,6.343994s-2.846008,6.343994 -6.343994,6.343994l0,0z" fill="#76AC2C"/>
			</g>
			<g id="svg_21">
				<path id="svg_20" d="m99.866028,72.245483c-0.21106,-0.685974 -0.473022,-1.342957 -0.775024,-1.968994l1.786987,-3.366028c-0.632996,-1.013977 -1.364014,-1.942993 -2.177979,-2.786987l-3.747009,1.161011c-1.133972,-0.843994 -2.390015,-1.509033 -3.726013,-1.971008l-1.231995,-4.026001c-1.05304,-0.225037 -2.132996,-0.351013 -3.22699,-0.372009l-1.994995,3.786011c-0.687988,0.101013 -1.379028,0.255981 -2.064026,0.467041c-0.686951,0.210938 -1.342957,0.470947 -1.969971,0.774963l-3.892029,-2.065979c-0.869019,0.593018 -1.669983,1.263977 -2.401978,1.994995l1.303955,4.208008c-0.843994,1.132935 -1.509949,2.390991 -1.971924,3.725952l-4.093994,1.253052c-0.182007,1.060974 -0.264038,2.143982 -0.239014,3.23999l3.721924,1.960999c0.101074,0.689026 0.255005,1.378967 0.466064,2.062988c0.211975,0.687012 0.471985,1.343994 0.776001,1.970032l-1.838013,3.462952c0.688965,0.975037 1.473999,1.861023 2.334961,2.656006l3.640991,-1.127014c1.133057,0.843994 2.391052,1.51001 3.726074,1.971008l1.036011,3.383972c1.241943,0.235046 2.518921,0.334045 3.80896,0.282043l1.609009,-3.054016c0.688965,-0.100952 1.379028,-0.255005 2.063965,-0.46698c0.686035,-0.210022 1.343994,-0.471985 1.970032,-0.774963l2.948975,1.566956c1.116028,-0.725037 2.132019,-1.565979 3.032043,-2.51001l-0.98999,-3.194031c0.844971,-1.132935 1.509949,-2.391968 1.971924,-3.725952l3.300049,-1.010986c0.286987,-1.233032 0.440979,-2.504028 0.442993,-3.794006l-3.130981,-1.648987c-0.104004,-0.688049 -0.258057,-1.377075 -0.468994,-2.064026zm-11.432007,9.987976c-3.44104,1.05896 -7.090027,-0.870972 -8.148071,-4.312012c-1.060974,-3.439941 0.871033,-7.088013 4.311035,-8.147949c3.440002,-1.059021 7.088013,0.870972 8.146973,4.310974c1.059082,3.440979 -0.869995,7.088989 -4.309937,8.148987z" fill="#76AC2C"/>
			</g>
		</g>
	</g>
</svg>