<svg version="1.1" xmlns="http://www.w3.org/2000/svg" xmlns:xlink="http://www.w3.org/1999/xlink" width="150" height="150" enable-background="new 0 0 637.8 850.39" xml:space="preserve" style=""><rect id="backgroundrect" width="100%" height="100%" x="0" y="0" fill="none" stroke="none" style="" class=""/>








<g class="currentLayer" style=""><title>Layer 1</title><g class="" id="svg_31">
	
		<line fill="#FFFFFF" stroke="#75AC2C" stroke-width="3" stroke-miterlimit="10" x1="124.96478196983844" y1="58.29225564786384" x2="111.65368608742938" y2="42.83727539229176" id="svg_3"/>
	<polygon fill="none" stroke="#75AC2C" stroke-width="3" stroke-miterlimit="10" points="99.97447204589844,67.88121795654297 63.40329360961914,133.30299377441406 122.87615203857422,59.34794235229492 " id="svg_5"/>
	<polygon fill="none" stroke="#75AC2C" stroke-width="3" stroke-miterlimit="10" points="94.00199127197266,50.08811950683594 35.23371505737305,50.08811950683594 29.0596981048584,66.49639129638672 100.17601013183594,66.49639129638672 " id="svg_7"/>
	<polygon fill="none" stroke="#75AC2C" stroke-width="3" stroke-miterlimit="10" points="95.81103515625,34.842811584472656 34.40234565734863,34.842811584472656 18.55726432800293,42.83727264404297 36.20000457763672,50.11087417602539 94.01092529296875,50.11087417602539 111.6536865234375,42.83727264404297 " id="svg_9"/>
	<polygon fill="none" stroke="#75AC2C" stroke-width="3" stroke-miterlimit="10" points="27.695993423461914,67.50006866455078 63.88602828979492,132.242431640625 5.032429933547974,59.056190490722656 " id="svg_11"/>
	
		<line fill="#FFFFFF" stroke="#75AC2C" stroke-width="3" stroke-miterlimit="10" x1="2.7300643920898438" y1="57.81601877535422" x2="18.557264363453214" y2="42.83727539229176" id="svg_13"/>
	<polygon fill="#75AC2C" points="129.76859283447266,79.28329467773438 124.96478271484375,67.185546875 120.16094207763672,79.28329467773438 107.84133911132812,83.50767517089844 120.62825012207031,86.806396484375 124.96478271484375,100.099609375 129.30130767822266,86.806396484375 142.08902740478516,83.50767517089844 " id="svg_15"/>
	<polygon fill="none" stroke="#75AC2C" stroke-width="3" stroke-miterlimit="10" points="134.94951629638672,28.794754028320312 130.14569854736328,16.697006225585938 125.34186553955078,28.794754028320312 113.02225494384766,33.01913070678711 125.80917358398438,36.317848205566406 130.14569854736328,49.61106872558594 134.48223114013672,36.317848205566406 147.26993560791016,33.01913070678711 " id="svg_17"/>
</g></g></svg>